<svg width="396" height="102" viewBox="0 0 396 102" fill="none" xmlns="http://www.w3.org/2000/svg">
<path d="M64.125 0.0686071C64.125 0.0914784 64.8281 0.708971 65.6719 1.4408C66.9937 2.60717 69.2156 5.14574 72.2531 9.03363C74.8687 12.3498 77.8781 18.2274 78.8906 21.9552C79.1437 22.8928 79.4813 23.8991 79.6219 24.1964C79.7625 24.4937 79.875 25.0426 79.875 25.4314C79.875 25.843 80.0156 26.9865 80.2125 28.0157C80.3813 29.022 80.4375 30.1426 80.325 30.4857L80.1562 31.1031H50.7656C28.0969 31.1031 21.375 31.1717 21.375 31.3776C21.375 31.5834 21.2906 31.5834 21.0375 31.3776C20.7844 31.1717 18.1406 31.1031 10.9125 31.1031H1.125V33.5045V35.9058H10.8C18.0281 35.9058 20.5594 35.8372 20.7 35.6314C20.8125 35.4713 20.925 34.7395 20.9531 33.9848C21.0375 31.652 21.1781 31.5605 21.3469 33.7332L21.5156 35.7915L34.0875 35.8372C41.0062 35.8601 46.8 35.9287 46.9688 36.0202C47.1375 36.0888 47.25 37.1179 47.25 38.3987C47.25 40.2969 47.1656 40.7314 46.6875 41.2345C46.1531 41.7834 45.9281 41.8291 42.8062 41.9435C39.0094 42.0807 37.0969 42.2637 36.7031 42.561C36.5625 42.6753 36.225 42.7668 35.9438 42.7668C35.6625 42.7668 35.2125 42.8583 34.9312 42.9726C34.6781 43.087 33.975 43.3614 33.3562 43.5901C31.6969 44.2534 29.5875 45.9 28.7719 47.2036C28.125 48.187 27.9844 48.7359 27.9 50.657C27.7594 53.4928 28.2375 54.7735 30.5156 57.5408C31.3594 58.5928 32.0625 59.5991 32.0625 59.7821C32.0625 60.0108 31.6688 60.1937 31.0219 60.2852C29.3906 60.5139 27.8437 61.2 26.2125 62.3435C24.3 63.7157 23.9062 64.3561 23.9062 66.1856C23.9062 68.2439 24.7781 69.7076 27.2812 71.9031C28.7437 73.1839 32.5969 75.5852 34.0312 76.0883C34.5656 76.2713 35.2687 76.5229 35.6062 76.6601C36.5625 77.026 42.2719 76.5915 42.6375 76.1341C42.7219 76.0197 43.0313 75.9283 43.3406 75.9283C43.6219 75.9283 44.1 75.8368 44.3813 75.7224C44.8875 75.5166 46.1531 75.0592 47.8125 74.4874C48.8531 74.1215 50.7937 73.4354 52.875 72.6807C53.5781 72.452 54.3656 72.1318 54.6187 72.0175C54.9 71.9031 55.3781 71.8117 55.6594 71.8117C55.9687 71.8117 56.3062 71.6973 56.3906 71.583C56.475 71.4686 56.925 71.3543 57.375 71.3543C57.825 71.3543 58.275 71.2399 58.3594 71.1256C58.4438 70.9883 59.7094 70.8969 61.1719 70.8969C62.6344 70.8969 63.9 70.9883 63.9844 71.1256C64.0688 71.2399 64.4062 71.3543 64.7437 71.3543C65.0531 71.3543 66.0375 71.9718 67.05 72.7722C69.1875 74.5332 70.0312 76.1798 70.0312 78.5583C70.0312 82.5377 65.3625 86.5399 59.7375 87.3632C57.8812 87.6377 57.6281 87.6148 55.9406 87.1345C54.9562 86.8601 53.9437 86.4713 53.6906 86.3112C53.4656 86.1282 53.1563 85.991 53.0438 85.991C52.7625 85.991 46.575 82.5148 46.4625 82.2861C46.4062 82.1946 46.2375 82.1031 46.0688 82.1031C45.9 82.1031 45.1969 81.7601 44.4656 81.3484C42.7781 80.365 42.2156 80.1592 38.8125 79.3359C36.1969 78.6726 27.1406 79.0614 26.0437 79.8619C25.875 79.9534 25.5375 80.0448 25.2844 80.0448C24.4688 80.0448 20.8406 81.7372 18.8719 83.0179C12.3187 87.3175 8.15625 93.7668 8.15625 99.53V101.886L9.30937 100.17C11.6156 96.717 15.5812 93.0578 19.6875 90.5422C20.7 89.9475 21.6562 89.3529 21.7969 89.2614C22.4437 88.8498 23.8781 88.2323 26.1562 87.3404C27.4781 86.8143 28.7719 86.3112 29.025 86.1969C29.3062 86.0825 29.7844 85.991 30.0656 85.991C30.375 85.991 30.6844 85.8996 30.7688 85.7852C30.8531 85.6709 31.4156 85.5336 31.9781 85.465C32.5687 85.3964 33.75 85.2135 34.5938 85.0762C36.5906 84.7332 43.1437 84.8475 43.65 85.2592C43.8187 85.3964 44.2687 85.5336 44.6344 85.5336C45 85.5336 45.5063 85.6251 45.7875 85.7395C46.0406 85.8538 46.7719 86.0596 47.3906 86.2197C48.0094 86.357 50.2875 87.1803 52.4531 88.0493C58.3031 90.3592 60.1875 91.0224 61.2281 91.0224C61.5656 91.0224 61.9312 91.1139 62.0156 91.2511C62.1 91.3883 63.4219 91.4798 64.9688 91.4798C66.5156 91.4798 67.8375 91.3883 67.9219 91.2511C68.0063 91.1139 68.3719 91.0224 68.6812 91.0224C69.8062 91.0224 72 89.4215 72.5906 88.1637C72.7594 87.7749 73.0125 87.2717 73.1813 86.9973C73.5188 86.4256 73.2938 80.4108 72.9 78.787C72.7313 78.1466 72.45 77.0717 72.2812 76.3856C71.325 72.5206 68.5687 68.5184 65.4469 66.5287C64.6875 66.0256 63.675 65.5453 63.225 65.4767C62.775 65.4081 62.3531 65.248 62.2687 65.1565C62.0719 64.8821 56.3344 64.9049 56.1094 65.1794C56.025 65.2937 55.6031 65.4081 55.2094 65.4081C53.6625 65.4081 49.7531 66.6202 43.3125 69.1359C36.8719 71.6287 35.4937 72.0404 33.3844 72.0404C29.475 72.0404 27.45 69.3874 29.5594 67.009C30.7406 65.6825 31.6406 65.065 33.4688 64.3561C34.3125 64.0359 35.2406 63.67 35.4937 63.5556C35.775 63.4413 36.4219 63.3498 36.9281 63.3498C37.4344 63.3498 37.9688 63.2583 38.1375 63.1211C38.2781 63.0067 40.5562 62.8695 43.1719 62.8238C51.4406 62.6637 55.2656 61.8632 57.8813 59.7363C59.7938 58.204 60.2719 57.0834 60.3 53.9731C60.3281 51.4117 60.3 51.3202 59.4281 50.0395C58.9219 49.3076 58.5 48.5758 58.5 48.3928C58.5 48.2099 58.8656 47.7525 59.3156 47.3637C59.9906 46.7691 60.3562 46.6547 61.425 46.6547C62.55 46.6547 62.775 46.7462 63.4219 47.4323C64.35 48.4157 65.25 50.3139 65.25 51.2516C65.25 51.6404 65.3625 51.9148 65.5031 51.8691C65.9531 51.7318 70.3125 47.3865 70.3125 47.0664C70.3125 46.5861 68.5687 44.3448 67.5562 43.5215C65.7 42.035 65.0813 41.8063 62.9438 41.7834C61.0594 41.7834 60.8906 41.8291 60.2156 42.4695C57.4031 45.1682 56.7281 45.7399 56.3906 45.7399C56.1938 45.7399 55.6875 45.4197 55.2938 45.0309C54.5625 44.3448 54.5625 44.2991 54.5625 40.2511C54.5625 37.4152 54.675 36.1117 54.9 35.9973C55.2375 35.8143 79.8469 35.8601 80.2125 36.0431C80.325 36.1117 80.4375 44.7336 80.4375 55.1852L80.4656 74.213L82.7719 75.0821C84.0375 75.5852 85.3312 76.0655 85.6406 76.157C85.95 76.2484 86.6531 76.5 87.2438 76.7058C87.8063 76.9117 88.3406 77.0717 88.425 77.0717C88.5094 77.0717 88.5938 75.2193 88.5938 72.9552C88.5938 70.691 88.7062 68.8386 88.8469 68.8386C88.9594 68.8386 90.2531 69.8448 91.7156 71.0798C97.9313 76.3399 100.828 77.3919 106.594 76.5C109.125 76.1112 112.95 74.213 115.959 71.8345C117.478 70.6682 121.5 66.7574 121.5 66.483C121.5 66.4144 121.922 65.774 122.428 65.0193C124.003 62.7552 124.678 60.7883 124.819 58.0211C124.987 54.5448 124.2 52.2121 121.781 49.1704C119.222 45.9457 115.059 43.3843 111.234 42.6296C109.603 42.3323 105.075 42.2637 103.922 42.5381C100.181 43.4529 94.4438 46.8605 91.0406 50.1996C90.2813 50.9543 89.5219 51.6175 89.4094 51.6404C89.2687 51.6861 89.1562 48.1641 89.1562 43.8188C89.1562 39.4735 89.2406 35.9058 89.3812 35.9058C95.3156 35.7915 161.437 35.883 161.662 35.9973C162.112 36.2031 162.141 42.6753 161.691 42.8812C161.55 42.9726 161.184 42.904 160.931 42.7211C159.975 42.1265 159.188 41.8749 155.109 40.9372C152.916 40.4341 146.109 40.8686 144.338 41.6004C144.084 41.7148 143.128 42.0807 142.228 42.4238C138.263 43.9103 133.791 47.7753 131.034 52.052C130.416 52.9897 129.938 53.9274 129.938 54.1561C129.938 54.3848 129.797 54.6821 129.656 54.7964C129.234 55.1395 129.263 59.2789 129.684 60.3309C131.428 64.7906 134.438 68.2668 139.275 71.3771C140.625 72.2462 141.806 72.9552 141.891 72.9552C142.003 72.9552 142.594 73.2525 143.241 73.5955C144.759 74.4188 148.866 75.9283 149.597 75.9283C149.906 75.9283 150.216 76.0197 150.3 76.1341C150.863 76.843 160.762 76.843 161.325 76.1341C161.409 76.0197 161.775 75.9283 162.169 75.9283C162.534 75.9283 162.844 75.8139 162.844 75.6996C162.844 75.5623 163.069 75.4709 163.35 75.4709C163.631 75.4709 163.969 75.3794 164.137 75.265C164.278 75.1507 165.15 74.739 166.078 74.3274C168.384 73.2982 170.128 72.2005 171.225 71.057C172.35 69.9363 173.306 68.404 173.081 68.1296C172.997 68.0152 170.691 67.9238 167.963 67.9238H163.012L161.578 69.0444C160.087 70.2336 158.231 71.1484 156.122 71.7431C154.547 72.2005 146.194 72.3148 145.097 71.9031C144.731 71.7659 143.831 71.4229 143.072 71.1713C141.581 70.6224 139.5 69.1587 138.684 68.061C137.531 66.5516 137.222 65.2937 137.334 62.7094C137.391 61.3601 137.587 59.8049 137.784 59.2332C138.347 57.5408 140.484 54.2018 142.116 52.4865C143.634 50.8628 146.644 48.6444 148.106 48.0269C148.556 47.8439 149.4 47.4552 149.963 47.1807C150.553 46.8834 151.256 46.6547 151.566 46.6547C151.875 46.6547 152.212 46.5404 152.297 46.426C152.381 46.2888 152.831 46.1973 153.281 46.1973C153.731 46.1973 154.181 46.083 154.266 45.9686C154.378 45.8314 155.953 45.7399 158.062 45.7399C160.172 45.7399 161.747 45.8314 161.859 45.9686C161.944 46.083 162.281 46.1973 162.562 46.1973C163.406 46.1973 165.094 47.0435 166.584 48.2099C168.497 49.6964 169.875 52.2578 169.875 54.2704V55.3453H172.969C174.684 55.3453 176.062 55.2767 176.062 55.2081C176.062 55.1166 175.556 54.2247 174.966 53.1955C174.122 51.7776 173.362 50.9543 171.731 49.6278L169.594 47.9354V42.035C169.594 37.6668 169.678 36.1117 169.931 35.9973C170.128 35.9058 172.434 35.8143 175.078 35.7915L179.859 35.7686V33.5045V31.2175L134.55 31.1489L89.2125 31.1031L89.0438 28.4045C88.5656 20.6973 86.9344 15.3 83.2781 9.46816C81.3375 6.42646 79.1437 3.86502 76.3312 1.3722L74.7562 0H69.4406C66.5156 0 64.125 0.0228713 64.125 0.0686071ZM51.525 45.0996C52.0875 45.3511 52.9594 46.0144 53.4375 46.609C54.225 47.5924 54.2812 47.7753 54.2812 49.8336C54.2812 52.3265 53.7469 53.5843 51.75 55.7112C50.7937 56.7404 46.8281 59.4619 46.2938 59.4619C46.1813 59.4619 45.7312 59.6448 45.3375 59.8735C44.0156 60.5825 42.4125 60.9027 40.05 60.8798C38.0812 60.857 37.575 60.7883 36.6469 60.3081C35.2969 59.622 34.0875 58.4785 33.5531 57.4265C32.9063 56.1686 33.1594 53.2413 34.0594 51.6861C35.4656 49.239 39.4312 46.3574 42.8906 45.2825C45.9 44.322 49.5281 44.2534 51.525 45.0996ZM106.116 48.5987C106.678 48.6901 107.156 48.8502 107.156 48.9646C107.156 49.0789 107.325 49.1704 107.55 49.1704C108.534 49.1704 111.656 50.9314 113.737 52.6924C115.847 54.4762 117.309 56.0771 118.463 57.9067C119.334 59.3018 119.362 59.439 119.391 62.2291C119.391 63.8529 119.25 65.3395 119.081 65.6596C118.069 67.4892 116.578 69.7076 115.931 70.3709C114.863 71.4457 113.119 72.4063 111.797 72.6121C110.391 72.8179 108.619 72.8408 108.366 72.6578C108.281 72.5664 107.775 72.4978 107.269 72.4978C106.762 72.4978 106.256 72.3834 106.172 72.2691C106.087 72.1318 105.806 72.0404 105.581 72.0404C105.019 72.0404 102.319 70.6224 100.631 69.4332C97.7625 67.4435 93.4594 62.6637 91.7156 59.5305C90.5344 57.3807 90.0844 55.2081 90.5344 53.9274C91.0125 52.6695 94.6969 49.6735 96.7781 48.8502C98.1844 48.3013 98.5219 48.2785 101.672 48.3471C103.528 48.3928 105.525 48.5072 106.116 48.5987Z" fill="#E5EADD"/>
<path d="M0.224885 8.48481C-0.14074 8.66777 0.196759 9.74266 1.32176 11.8924C1.54676 12.327 1.85613 12.8987 1.96863 13.1503C3.34675 15.8032 3.20612 15.666 5.23112 16.4436C6.29987 16.8552 7.73425 17.427 8.43737 17.6785C9.1405 17.953 10.2092 18.6162 10.8561 19.1651C12.0092 20.1256 12.403 20.6974 14.6249 24.5395L15.778 26.5521L16.8186 26.4834C17.7749 26.4148 17.8592 26.3462 17.9436 25.6373C17.9999 25.1799 17.7186 24.1964 17.1842 23.1216C16.7342 22.161 16.1999 20.9261 16.0311 20.3543C15.2155 17.8158 13.4155 13.7906 12.7405 13.0588C11.8124 12.0525 10.7155 11.2521 10.0686 11.0691C9.78737 11.0005 9.56237 10.8404 9.56237 10.7261C9.56237 10.6117 9.42175 10.5202 9.28112 10.5202C9.11237 10.5202 8.38112 10.3144 7.64987 10.04C6.91862 9.76553 6.07487 9.46822 5.7655 9.37674C5.45612 9.28526 4.69675 9.03369 4.078 8.82786C2.78426 8.39333 0.787384 8.21037 0.224885 8.48481Z" fill="#E5EADD"/>
<path d="M7.22812 41.3031C6.89062 41.5776 7.00312 73.3897 7.31249 73.8928C7.48124 74.1215 7.73437 74.3273 7.90312 74.3273C8.07187 74.3273 8.54999 74.5103 8.94374 74.7619C9.36562 74.9906 10.2656 75.4251 10.9687 75.7453C14.0625 77.1403 14.5125 77.3462 14.7375 77.552C14.9062 77.6664 15.1312 77.7578 15.2437 77.7578C15.3562 77.7578 15.4406 69.5475 15.4125 59.5076L15.3281 41.2802L11.3625 41.2116C9.19687 41.1888 7.34062 41.2345 7.22812 41.3031Z" fill="#E5EADD"/>
<path d="M241.312 50.2453C241.312 50.3596 241.256 52.3722 241.228 54.7735C241.172 58.5014 241.115 59.096 240.75 59.0274C239.878 58.8444 235.687 58.73 235.012 58.8673C232.172 59.439 231.103 67.4435 232.987 74.0301C233.269 75.1049 234.056 76.1112 234.787 76.3857C235.209 76.5457 235.772 76.7516 236.025 76.8659C236.306 76.9803 238.162 77.0718 240.187 77.0718H243.844V63.5785V50.0852H242.578C241.875 50.0852 241.312 50.1538 241.312 50.2453ZM240.694 62.1605C241.312 62.5493 241.312 62.5722 241.256 68.2668L241.172 73.9843L239.484 74.0529C235.603 74.213 235.209 73.8014 234.956 69.3417C234.759 65.8655 235.125 62.8238 235.856 62.1834C236.503 61.5888 239.737 61.5659 240.694 62.1605Z" fill="#E5EADD"/>
<path d="M315.056 63.5099L315.141 76.9574L316.35 77.026L317.531 77.0946V70.0278C317.531 64.1502 317.587 62.8924 317.925 62.6637C318.572 62.252 322.453 62.0691 322.762 62.4579C322.903 62.6408 323.072 65.957 323.156 69.8677L323.297 76.9574H324.562H325.828L325.912 70.4395C326.025 62.778 325.744 60.3309 324.675 59.4619C324.084 58.9587 323.747 58.8901 322.228 58.913C321.272 58.913 319.922 59.096 319.247 59.3018C318.544 59.5076 317.897 59.622 317.756 59.5534C317.644 59.4848 317.531 57.335 317.531 54.7507V50.0852H316.266H315L315.056 63.5099Z" fill="#E5EADD"/>
<path d="M204.131 57.1063L204.047 58.8902L203.147 58.9588L202.219 59.0274V60.6283V62.2063H203.203H204.188V67.5579C204.188 74.4189 204.328 75.448 205.313 76.4314C206.1 77.1861 206.128 77.1861 208.406 77.1404C209.672 77.1175 210.853 77.0032 211.022 76.866C211.191 76.7287 211.613 76.6144 211.95 76.6144C212.738 76.6144 212.794 76.4772 212.681 74.9677L212.569 73.7556H209.869C207.225 73.7556 207.169 73.7328 206.972 73.1839C206.859 72.8637 206.775 70.2794 206.747 67.3978L206.719 62.2063H207.366C207.731 62.2063 208.125 62.1148 208.294 62.0005C208.434 61.8633 209.363 61.7489 210.347 61.7032L212.147 61.6346V60.3767V59.1189L209.503 59.0045L206.859 58.8902L206.775 57.1063L206.691 55.3453H205.453H204.216L204.131 57.1063Z" fill="#E5EADD"/>
<path d="M278.381 57.1062L278.297 58.8901L277.397 58.9587L276.469 59.0273V60.6282V62.2062H277.453H278.438L278.466 67.8551C278.494 74.6704 278.634 75.7224 279.675 76.5686C280.378 77.1403 280.575 77.1861 282.684 77.1632C283.95 77.1403 285.103 77.0031 285.272 76.8659C285.441 76.7287 285.863 76.6143 286.2 76.6143C286.988 76.6143 287.044 76.4771 286.931 74.9448L286.819 73.7327L284.175 73.8242L281.531 73.9157L281.25 73.3211C281.081 72.9551 280.969 70.4623 280.969 67.4435V62.2062H281.644C282.038 62.2062 282.431 62.0919 282.516 61.9775C282.6 61.8403 283.5 61.7488 284.513 61.7488H286.313V60.3767V59.0273L283.725 58.9587L281.109 58.8901L280.969 57.1749L280.828 55.4596L279.647 55.391L278.466 55.3224L278.381 57.1062Z" fill="#E5EADD"/>
<path d="M361.631 57.1063L361.547 58.8902L360.647 58.9588L359.719 59.0274V60.6054V62.1834L360.647 62.2521L361.547 62.3207L361.716 68.7243C361.856 74.2588 361.941 75.2422 362.391 75.9054C363.066 76.9346 364.444 77.392 366.469 77.209C368.381 77.026 370.266 76.5229 370.238 76.1799C370.209 76.0426 370.181 75.448 370.181 74.8305L370.125 73.7556L367.481 73.8242L364.866 73.9157L364.528 73.161C364.331 72.7036 364.219 70.531 364.219 67.3292V62.2063H364.866C365.231 62.2063 365.625 62.1148 365.794 62.0005C365.934 61.8633 366.863 61.7489 367.875 61.7032L369.703 61.6346L369.788 60.3081L369.872 59.0045H367.481C364.162 59.0045 364.219 59.0503 364.219 57.0377V55.3453H362.953H361.716L361.631 57.1063Z" fill="#E5EADD"/>
<path d="M191.812 59.0273C190.012 59.3018 189.478 60.0793 189.084 62.9381C188.803 65.1565 189.281 66.0484 191.925 68.0838C196.622 71.7659 196.819 71.9489 196.734 72.5892C196.566 73.7556 196.228 73.8699 192.769 73.8699H189.562V75.4708V77.0717H193.444C198.731 77.0717 198.844 77.0031 199.603 72.6578C199.687 72.2004 199.575 71.3085 199.378 70.7139C198.956 69.5704 197.353 68.1067 193.866 65.6596C192.037 64.356 191.644 63.7385 192.094 62.8009C192.347 62.2063 192.403 62.2063 195.328 62.2063H198.281V60.491V58.7758L195.694 58.7986C194.259 58.8215 192.516 58.913 191.812 59.0273Z" fill="#E5EADD"/>
<path d="M304.65 59.0273C303.075 59.2789 301.922 60.308 301.472 61.8632C300.994 63.6242 300.825 69.8219 301.191 72.3605C301.556 74.8991 302.231 76.2026 303.469 76.7287C304.538 77.1861 310.556 77.2318 311.006 76.7744C311.175 76.6143 311.287 76.0654 311.231 75.5852C311.175 75.082 311.119 74.4645 311.091 74.213C311.062 73.7556 310.978 73.7556 308.559 73.9385C306.619 74.0986 305.859 74.0757 305.241 73.8242C303.834 73.2753 303.638 72.5892 303.638 68.0152C303.638 64.3331 303.694 63.7614 304.172 63.0295C304.481 62.5721 304.931 62.2062 305.213 62.2062C305.466 62.2062 305.775 62.0919 305.859 61.9775C305.944 61.8403 306.394 61.7488 306.844 61.7488C307.294 61.7488 307.744 61.8403 307.828 61.9775C307.913 62.0919 308.616 62.2062 309.403 62.2062H310.781V60.7426V59.2789L309.375 59.0273C307.744 58.73 306.394 58.73 304.65 59.0273Z" fill="#E5EADD"/>
<path d="M334.125 59.1189C333.281 59.3019 331.959 59.5763 331.172 59.7593L329.766 60.0794L329.794 61.2687C329.85 62.7781 330.131 63.0297 331.312 62.6866C331.819 62.5494 333.197 62.3664 334.378 62.2978C337.191 62.1149 337.556 62.3893 337.444 64.5162L337.359 65.9799L335.109 66.4602C331.706 67.192 331.031 67.4893 330.103 68.6785C329.428 69.5247 329.231 71.1028 329.484 73.5499C329.681 75.4709 329.737 75.6081 330.666 76.3171L331.622 77.0718H335.841H340.031L340.003 69.1131C340.003 60.2395 339.919 59.8279 338.344 59.1875C337.219 58.7072 336.291 58.7072 334.125 59.1189ZM337.359 71.583V73.7557L335.137 73.8243C332.325 73.9158 331.875 73.6413 331.875 71.9261C331.875 70.8741 331.959 70.6682 332.606 70.3252C333.028 70.1194 333.844 69.8678 334.462 69.822C335.053 69.7534 335.616 69.5933 335.7 69.479C335.784 69.3646 336.206 69.296 336.6 69.3418L337.359 69.4104V71.583Z" fill="#E5EADD"/>
<path d="M393.469 59.8049C392.625 60.3538 391.753 60.8112 391.584 60.8341C391.359 60.8341 391.219 60.5139 391.219 59.9193V59.0045H389.813H388.406L388.462 67.9695L388.547 76.9574H389.813H391.078L391.134 70.691C391.162 67.2376 391.247 64.2874 391.331 64.1273C391.416 63.9672 391.95 63.6242 392.541 63.3955C396.197 61.8632 396 62.0004 395.803 61.2228C395.719 60.8112 395.494 60.1022 395.325 59.6219L395.016 58.7758L393.469 59.8049Z" fill="#E5EADD"/>
<path d="M216.844 64.4247C216.872 71.6745 217.153 74.2359 218.081 75.448C219.094 76.7516 220.022 77.0718 222.806 77.0718C227.981 77.0718 228.628 75.631 228.656 64.3103V59.0045H227.419H226.181L226.069 65.7283C225.984 72.1547 225.956 72.4978 225.394 73.1153C224.241 74.3503 221.259 74.3503 220.106 73.1153C219.544 72.4978 219.516 72.1547 219.431 65.7283L219.347 59.0045H218.081H216.844V64.4247Z" fill="#E5EADD"/>
<path d="M251.044 59.1875C250.594 59.2789 249.891 59.7135 249.441 60.148C248.794 60.8112 248.597 61.3144 248.372 62.8924C248.062 64.9964 247.922 71.0341 248.147 71.583C248.231 71.7659 248.372 72.4978 248.428 73.2067C248.512 73.9157 248.822 74.8991 249.159 75.4023C250.087 76.8888 250.65 77.0718 254.503 77.0718C256.359 77.0718 258.047 77.0032 258.3 76.9345C258.637 76.8202 258.75 76.4771 258.75 75.4937C258.75 74.7848 258.637 74.0987 258.525 73.9614C258.384 73.7785 257.653 73.7785 256.078 73.9157C252 74.2816 251.1 73.8242 250.762 71.2171C250.622 70.0736 250.65 69.639 250.931 69.4789C251.128 69.3875 252.956 69.296 254.953 69.3189L258.609 69.3417L258.694 65.7283C258.778 61.6803 258.412 60.2395 257.062 59.5305C256.303 59.1189 252.534 58.913 251.044 59.1875ZM256.219 62.8238C256.697 63.3269 256.781 63.6928 256.725 64.9278L256.641 66.4372L253.856 66.5058C252.309 66.5287 250.959 66.483 250.847 66.3915C250.284 65.9341 250.678 63.2812 251.381 62.5951C251.719 62.2978 252.253 62.2063 253.716 62.2063C255.431 62.2063 255.656 62.252 256.219 62.8238Z" fill="#E5EADD"/>
<path d="M262.463 67.9695L262.547 76.9574H263.812H265.078L265.134 70.2565C265.162 66.5516 265.247 63.3955 265.331 63.2126C265.416 63.0296 265.725 62.8924 266.006 62.8924C266.287 62.8924 266.653 62.7781 266.822 62.6408C266.962 62.5265 267.722 62.435 268.481 62.4808C269.747 62.5494 269.916 62.618 270.337 63.3498C270.787 64.0588 270.844 64.9278 270.844 70.5996V77.0718H272.109H273.375V69.7991C273.375 59.4619 273.15 58.8444 269.437 59.0731C268.425 59.1417 267.187 59.3704 266.681 59.5763C265.641 60.0108 264.853 59.8964 265.106 59.3476C265.247 59.0731 265.022 59.0045 263.841 59.0045H262.406L262.463 67.9695Z" fill="#E5EADD"/>
<path d="M344.25 69.7077C344.25 75.6081 344.306 80.4794 344.363 80.5251C344.447 80.5938 345.009 80.5938 345.628 80.548L346.781 80.4565V78.6956V76.9346L350.1 77.0032C352.491 77.0718 353.503 77.0032 353.813 76.7973C354.6 76.2713 355.247 75.2422 355.5 74.1444C355.753 73.0924 355.922 63.9902 355.697 63.3269C355.641 63.1668 355.444 62.5036 355.247 61.909C354.825 60.4453 353.756 59.3247 352.631 59.1417C352.153 59.0731 350.072 59.0045 348.019 59.0045H344.25V69.7077ZM352.069 62.2063C352.997 62.9153 353.109 63.5556 353.109 68.3812C353.109 74.0301 353.081 74.0987 350.156 74.0987C349.088 74.0987 347.878 73.9843 347.484 73.8242L346.781 73.5727V67.9238C346.781 63.8529 346.866 62.2292 347.119 62.0234C347.316 61.8633 348.272 61.7489 349.453 61.7489C351.084 61.7489 351.563 61.8404 352.069 62.2063Z" fill="#E5EADD"/>
<path d="M376.453 59.1418C373.95 59.6449 373.219 61.6346 373.162 67.9239C373.134 73.1382 373.866 75.7911 375.581 76.683C376.144 77.0032 377.016 77.0718 379.659 77.0718C381.516 77.0718 383.203 77.0032 383.456 76.9346C383.794 76.8203 383.906 76.4772 383.906 75.4938C383.906 74.7848 383.794 74.0987 383.681 73.9615C383.54 73.7786 382.809 73.7786 381.234 73.9158C377.241 74.2817 376.425 73.87 375.975 71.3086C375.637 69.2961 375.694 69.2732 380.081 69.3189L383.766 69.3418V65.3853C383.766 59.7593 383.372 59.2104 379.266 59.0961C378.028 59.0503 376.762 59.0732 376.453 59.1418ZM381.347 62.7553C381.881 63.2127 381.966 63.4871 381.881 64.8593L381.797 66.4373H378.844H375.891L375.947 64.7449C376.031 62.4808 376.341 62.2064 378.844 62.2064C380.447 62.2064 380.812 62.275 381.347 62.7553Z" fill="#E5EADD"/>
<path d="M82.378 83.4067C81.0561 84.413 80.578 85.648 80.9999 86.9287C81.4218 88.1866 82.6593 88.8955 85.4155 89.3987C87.2155 89.7417 89.1561 91.0224 89.1561 91.8458C89.1561 92.6005 88.453 93.6982 87.778 93.9955C87.4686 94.1099 86.4561 94.2242 85.528 94.2242C83.503 94.2242 82.2936 93.561 82.0124 92.2803C81.8436 91.6171 81.703 91.4798 81.1124 91.4798C80.4374 91.4798 80.4093 91.5484 80.578 92.2117C81.028 93.9269 82.2093 94.9561 84.1499 95.3906C86.5405 95.8937 89.0155 95.0704 89.9718 93.4466C91.3499 91.1825 90.1124 89.1928 86.9061 88.5067C84.5718 88.0265 83.2218 87.5233 82.6874 86.9516C80.7749 84.9848 84.3749 82.5605 87.1311 83.9327C87.7218 84.2301 88.2561 84.7561 88.5093 85.3049C88.8186 85.9224 89.128 86.2197 89.4936 86.2197C89.9718 86.2197 90.028 86.1054 89.8593 85.465C89.3249 83.4067 88.003 82.5605 85.303 82.5605C83.6155 82.5605 83.4468 82.6063 82.378 83.4067Z" fill="#E5EADD"/>
<path d="M96.103 83.0408C94.6686 83.6583 93.4874 85.0762 93.0655 86.6314C92.4467 89.1242 93.1499 92.6462 94.5561 93.9955C96.2155 95.5964 99.253 95.9623 101.475 94.8188C102.347 94.3843 102.881 93.8583 103.387 93.0121C104.259 91.457 104.259 91.0224 103.359 91.0224C102.825 91.0224 102.656 91.1368 102.656 91.4798C102.656 92.1659 101.925 93.1951 101.081 93.7439C99.9561 94.4758 97.3686 94.43 96.2436 93.6525C94.8092 92.6691 94.2186 91.3197 94.2186 88.987C94.2186 85.991 95.1749 84.4587 97.5092 83.704C99.3374 83.1323 101.672 84.0471 102.515 85.6709C102.769 86.1969 103.106 86.4484 103.5 86.4484C103.978 86.4484 104.034 86.357 103.894 85.8081C103.5 84.5045 102.515 83.4525 101.194 82.8807C100.069 82.4004 97.3967 82.4919 96.103 83.0408Z" fill="#E5EADD"/>
<path d="M107.297 82.8349C107.212 82.995 107.184 85.8537 107.212 89.1928C107.297 95.0703 107.325 95.2533 107.859 95.2533C108.394 95.2533 108.422 95.0703 108.506 92.2345L108.591 89.2156L111.966 89.147C113.85 89.1013 115.481 89.1241 115.622 89.1928C115.734 89.2614 115.903 90.6564 115.931 92.2802C116.016 95.1618 116.044 95.2533 116.662 95.3219L117.281 95.3905V88.9641V82.5376L116.662 82.6062C116.044 82.6748 116.016 82.7663 115.931 85.3735L115.847 88.0721L112.275 88.0035L108.703 87.9349L108.562 85.3049C108.45 83.0407 108.366 82.6748 107.916 82.6062C107.662 82.5605 107.381 82.6748 107.297 82.8349Z" fill="#E5EADD"/>
<path d="M123.553 83.0866C121.331 84.0471 120.234 85.9453 120.234 88.8498C120.234 91.2283 120.488 92.0974 121.528 93.4009C122.906 95.0933 125.381 95.8709 127.716 95.3678C129.431 95.0018 130.5 94.27 131.456 92.8521C133.003 90.5422 132.75 86.4027 130.922 84.3902C129.262 82.5377 126.112 81.9888 123.553 83.0866ZM128.559 84.2301C130.078 85.0305 130.866 86.6086 130.894 88.8269C130.922 91.0911 130.303 92.5319 128.925 93.5382C128.081 94.1328 127.744 94.2243 126.281 94.2243C124.903 94.2243 124.481 94.1328 123.722 93.6068C122.344 92.6691 121.725 91.2969 121.725 89.1929C121.725 87.3861 122.091 86.0826 122.878 85.0991C124.003 83.6812 126.759 83.2467 128.559 84.2301Z" fill="#E5EADD"/>
<path d="M138.263 83.0865C134.072 84.9848 133.903 92.4632 138.009 94.7731C139.022 95.3448 139.5 95.4592 140.963 95.4592C143.944 95.4592 145.997 94.1785 146.784 91.8229C147.234 90.4964 147.15 87.1803 146.672 85.8538C146.222 84.6188 144.703 83.2238 143.353 82.8121C142.031 82.4005 139.5 82.5377 138.263 83.0865ZM143.269 84.1614C144.619 84.8247 145.434 86.1969 145.603 88.1179C145.828 90.5421 145.322 92.2117 144.028 93.3094C143.016 94.1785 142.875 94.2242 141.244 94.2242C139.725 94.2242 139.416 94.1327 138.544 93.5381C137.166 92.5318 136.547 91.091 136.575 88.8269C136.575 86.6314 137.391 85.0305 138.909 84.23C140.119 83.5668 142.031 83.5211 143.269 84.1614Z" fill="#E5EADD"/>
<path d="M150.469 88.9641V95.3905L154.491 95.3219L158.484 95.2533V94.6815V94.1098L155.194 94.0412L151.875 93.9726L151.819 88.3237L151.734 82.6748L151.116 82.6062L150.469 82.5376V88.9641Z" fill="#E5EADD"/>
<path d="M168.3 83.2924C166.134 84.4816 165.516 85.6937 165.516 88.8498C165.516 91.6857 165.853 92.7148 167.147 93.904C168.356 95.0475 169.453 95.4363 171.422 95.4363C175.303 95.4363 177.469 93.1265 177.469 88.9641C177.469 84.8018 175.331 82.5605 171.338 82.5605C169.903 82.5605 169.453 82.6749 168.3 83.2924ZM173.334 84.0471C175.219 84.7789 176.259 87.1117 175.978 89.9475C175.781 91.7771 174.825 93.3323 173.531 93.8812C172.575 94.2928 170.466 94.3386 169.481 93.9727C167.569 93.2637 166.472 90.4507 167.006 87.5462C167.316 85.8309 168.244 84.5731 169.622 84.0014C170.55 83.6126 172.266 83.6354 173.334 84.0471Z" fill="#E5EADD"/>
<path d="M180.844 89.0099C180.844 95.1848 180.872 95.3678 181.406 95.3678C181.913 95.3678 181.969 95.1848 182.025 92.3261L182.109 89.3072L185.287 89.2386C188.184 89.1929 188.438 89.1471 188.438 88.7355C188.438 88.3238 188.184 88.2781 185.287 88.2323L182.109 88.1637V86.1054V84.0471L185.709 83.9785L189.309 83.9099L189.225 83.3382L189.141 82.7435L184.978 82.7207L180.844 82.6749V89.0099Z" fill="#E5EADD"/>
<path d="M197.156 89.0099V95.3678H201.797H206.438V94.6817V93.9956H202.528C200.222 93.9956 198.562 93.9041 198.506 93.7669C198.478 93.6525 198.478 92.6005 198.562 91.4341L198.703 89.3072L202.162 89.2386C205.341 89.1929 205.594 89.1471 205.594 88.7355C205.594 88.3238 205.341 88.2781 202.162 88.2323L198.703 88.1637L198.562 86.2655C198.478 85.2364 198.478 84.2758 198.506 84.1615C198.562 84.0243 200.166 83.9328 202.359 83.9328C204.441 83.9328 206.184 83.8413 206.269 83.7498C206.353 83.6355 206.353 83.361 206.269 83.1095C206.128 82.6978 205.819 82.6749 201.628 82.6749H197.156V89.0099Z" fill="#E5EADD"/>
<path d="M210.178 82.7207L209.531 82.8122V89.1014C209.531 95.2077 209.531 95.3678 210.094 95.3678C210.628 95.3678 210.656 95.2077 210.656 90.3592C210.656 87.4776 210.769 85.2821 210.909 85.1906C211.078 85.122 211.781 85.9682 212.512 87.066C215.944 92.2117 217.969 95.0476 218.334 95.2305C218.559 95.3449 218.953 95.3678 219.206 95.2991C219.628 95.1619 219.656 94.5444 219.6 88.9184C219.516 83.018 219.487 82.6749 219.009 82.6749C218.503 82.6749 218.475 82.9951 218.447 87.7063C218.391 91.6857 218.306 92.7377 218.025 92.7377C217.828 92.7377 217.125 91.9144 216.45 90.9081C214.312 87.6377 210.881 82.5606 210.825 82.5835C210.825 82.6063 210.516 82.6749 210.178 82.7207Z" fill="#E5EADD"/>
<path d="M225.703 83.1094C223.594 84.1157 222.469 86.174 222.469 89.0785C222.469 91.1368 223.088 92.852 224.213 93.904C226.378 95.8937 229.387 96.0538 231.778 94.2928C232.397 93.8354 232.959 93.5381 233.044 93.6067C233.156 93.6753 233.297 94.0641 233.409 94.4529C233.494 94.8417 233.719 95.1848 233.859 95.2076C234.028 95.2305 234.169 94.0184 234.225 91.983L234.309 88.7354H231.609C229.134 88.7354 228.938 88.7583 228.938 89.1928C228.938 89.6045 229.134 89.6502 230.878 89.6502C233.213 89.6502 233.466 89.9247 232.734 91.6856C231.975 93.561 230.203 94.4987 227.925 94.2242C225.675 93.9498 224.438 92.7605 223.847 90.2677C223.509 88.804 223.931 86.4027 224.747 85.3507C226.406 83.0865 230.597 82.9493 232.116 85.0991C232.537 85.7166 232.931 85.991 233.353 85.991C233.916 85.991 233.944 85.9224 233.719 85.3964C232.819 83.5211 231.019 82.5605 228.459 82.5834C227.306 82.5834 226.519 82.7435 225.703 83.1094Z" fill="#E5EADD"/>
<path d="M237.797 82.835C237.713 82.995 237.684 85.8538 237.741 89.1928L237.797 95.2533L238.444 95.322L239.063 95.3906L239.006 89.0327C238.922 83.178 238.894 82.6749 238.416 82.6063C238.163 82.5605 237.881 82.652 237.797 82.835Z" fill="#E5EADD"/>
<path d="M242.719 88.987C242.719 95.2077 242.719 95.3678 243.281 95.3678C243.816 95.3678 243.844 95.2077 243.844 90.3592C243.844 87.5005 243.956 85.2821 244.097 85.1906C244.238 85.122 245.587 86.9059 247.106 89.1243C251.1 95.0933 251.241 95.2534 252.028 95.2534H252.703V88.9642C252.703 83.5211 252.647 82.6749 252.281 82.6749C251.916 82.6749 251.859 83.4296 251.775 87.7521C251.719 91.9144 251.634 92.8521 251.325 92.8521C251.1 92.8521 250.65 92.4175 250.312 91.8687C249.975 91.3426 248.428 89.0328 246.909 86.7686C244.434 83.1323 244.013 82.6063 243.394 82.6063H242.719V88.987Z" fill="#E5EADD"/>
<path d="M256.5 89.0328V95.3678L261.084 95.322L265.641 95.2534L265.725 94.6359L265.809 94.0184L261.788 93.9498L257.766 93.8812V91.8229C257.766 90.6794 257.85 89.6274 257.991 89.4673C258.187 89.2843 259.256 89.1929 261.591 89.1929C264.741 89.1929 264.938 89.17 264.938 88.7355C264.938 88.3009 264.741 88.2781 261.591 88.2781C259.256 88.2781 258.188 88.1866 258.019 87.9808C257.878 87.8435 257.766 86.883 257.766 85.8767V84.0471L261.647 83.9785L265.528 83.9099L265.444 83.3382L265.359 82.7664L260.916 82.7207L256.5 82.6749V89.0328Z" fill="#E5EADD"/>
<path d="M268.706 82.9036C268.622 83.0408 268.622 85.8538 268.65 89.1928L268.734 95.2534H273.375H278.016L278.1 94.6359L278.185 94.0184L274.163 93.9498L270.141 93.8812V91.5942V89.3072L273.741 89.2386C277.06 89.1928 277.313 89.1471 277.313 88.7354C277.313 88.3238 277.06 88.278 273.741 88.2323L270.141 88.1637V86.1054V84.0471L274.022 83.9785L277.903 83.9099L277.819 83.3381L277.735 82.7664L273.263 82.7206C270.45 82.6978 268.763 82.7664 268.706 82.9036Z" fill="#E5EADD"/>
<path d="M281.081 82.9037C280.997 83.0409 280.997 85.8539 281.025 89.1929C281.109 95.0705 281.138 95.2534 281.672 95.2534C282.206 95.2534 282.234 95.0705 282.375 92.509L282.516 89.7646L284.963 89.696C287.128 89.6503 287.466 89.696 287.944 90.1077C288.534 90.6337 288.844 91.6857 288.844 93.3095C288.844 95.0019 289.069 95.3678 290.025 95.3678C290.728 95.3678 290.841 95.2992 290.672 94.9561C290.306 94.2472 289.997 92.7606 289.969 91.64C289.969 90.4965 289.603 89.7189 288.9 89.2844C288.534 89.0785 288.563 88.9871 289.069 88.5983C291.038 87.1117 290.756 84.0472 288.535 83.1324C287.55 82.6978 281.25 82.5149 281.081 82.9037ZM287.859 84.2987C289.266 85.0534 289.041 87.7521 287.494 88.2324C286.538 88.5525 286.313 88.5754 284.147 88.5297L282.375 88.5068V86.3799C282.375 85.1907 282.459 84.1615 282.572 84.0929C282.966 83.7499 287.156 83.9328 287.859 84.2987Z" fill="#E5EADD"/>
<path d="M293.766 82.8579C293.681 83.018 293.653 85.8538 293.681 89.1929C293.766 95.0018 293.794 95.2534 294.3 95.2534C294.834 95.2534 294.863 95.0018 294.919 89.1929C294.947 85.8767 294.919 83.018 294.834 82.8579C294.638 82.4691 293.934 82.4691 293.766 82.8579Z" fill="#E5EADD"/>
<path d="M298.519 82.8807C298.462 83.0179 298.434 85.8538 298.462 89.1928C298.547 95.0704 298.575 95.2534 299.109 95.2534C299.644 95.2534 299.672 95.0933 299.728 90.4507C299.756 87.7978 299.784 85.4879 299.812 85.3049C299.812 84.6646 300.487 85.5336 303.75 90.4049C306.619 94.7045 307.097 95.2534 307.687 95.2534H308.391L308.475 89.1014C308.531 82.9722 308.503 82.5834 307.631 82.5605C307.491 82.5605 307.406 84.8933 307.406 87.7292C307.406 91.7543 307.322 92.8749 307.069 92.8063C306.872 92.7377 305.184 90.4507 303.328 87.7063C300.487 83.4982 299.841 82.6978 299.306 82.6749C298.941 82.652 298.575 82.7435 298.519 82.8807Z" fill="#E5EADD"/>
<path d="M315.422 82.9493C312.891 84.0242 311.794 85.8309 311.766 88.9641C311.766 91.3197 312.047 92.1202 313.369 93.6525C315.281 95.8708 318.797 96.1682 321.075 94.2928C322.144 93.4238 322.509 93.4924 322.65 94.5673C322.706 95.0018 322.903 95.2534 323.156 95.2534C323.522 95.2534 323.578 94.7502 323.578 92.0516V88.8498L320.85 88.7812C318.263 88.7125 318.094 88.7354 318.094 89.1699C318.094 89.5816 318.319 89.6273 320.147 89.696L322.172 89.7646L322.144 90.8166C322.116 93.6296 318.403 95.2762 315.422 93.7668C314.944 93.5152 314.241 92.8291 313.875 92.2345C313.312 91.2968 313.2 90.7937 313.2 88.9412C313.2 86.5856 313.763 85.2592 315.084 84.3672C317.25 82.9493 320.4 83.4067 321.609 85.3278C322.059 85.991 323.156 86.2655 323.156 85.6937C323.156 85.0991 321.637 83.4982 320.625 83.0408C319.331 82.4462 316.688 82.4004 315.422 82.9493Z" fill="#E5EADD"/>
<path d="M335.784 83.0178C333.309 84.0699 332.297 86.151 332.494 89.5587C332.747 93.4237 334.631 95.4134 338.062 95.4591C340.847 95.482 342.816 94.1098 343.547 91.6398C343.716 91.0909 343.659 91.0223 343.041 91.0223C342.478 91.0223 342.309 91.1596 342.169 91.7542C341.887 92.8519 340.734 93.9497 339.497 94.247C336.403 95.0017 333.956 93.0349 333.647 89.5358C333.309 85.9223 335.616 83.2008 338.709 83.5439C340.144 83.7039 341.128 84.2986 341.944 85.4878C342.562 86.4026 343.181 86.6999 343.519 86.2425C343.603 86.151 343.322 85.4878 342.9 84.8246C341.916 83.2465 340.566 82.5604 338.344 82.5833C337.387 82.5833 336.403 82.7434 335.784 83.0178Z" fill="#E5EADD"/>
<path d="M346.669 82.7206C346.191 82.835 346.162 83.0866 346.275 87.5462C346.387 91.6857 346.472 92.4175 346.978 93.3323C347.822 94.8417 349.003 95.4592 351.112 95.4592C355.5 95.4363 356.54 93.6753 356.4 86.6085C356.344 82.7435 356.315 82.5605 355.781 82.5605C355.303 82.5605 355.219 82.7206 355.19 83.5211C355.19 84.07 355.134 85.991 355.106 87.8206C355.05 89.6502 354.937 91.5027 354.825 91.9601C354.572 92.9435 353.503 93.9269 352.519 94.1327C351.365 94.3614 349.594 94.0641 348.862 93.5153C347.822 92.7148 347.597 91.5942 347.625 87.1803C347.625 84.9619 347.653 82.9951 347.625 82.835C347.625 82.5605 347.541 82.5377 346.669 82.7206Z" fill="#E5EADD"/>
<path d="M361.969 82.9722C360.844 83.4525 359.719 85.0305 359.719 86.1054C359.719 87.6605 361.012 88.6211 364.162 89.3987C367.453 90.1991 368.494 91.2283 367.706 92.8292C366.975 94.2928 364.809 94.8417 362.644 94.1099C361.884 93.8583 361.519 93.5153 361.041 92.6462C360.619 91.8457 360.253 91.4798 359.887 91.4798C359.437 91.4798 359.381 91.5942 359.55 92.2117C360.056 94.3157 361.716 95.4592 364.387 95.4592C367.228 95.4592 368.972 94.2928 369.197 92.2345C369.45 90.0848 368.466 89.0785 365.456 88.4839C362.587 87.9121 361.125 87.0202 361.125 85.8309C361.125 84.8018 361.519 84.2529 362.531 83.8184C364.416 83.0179 366.497 83.6126 367.341 85.2135C367.734 85.8996 368.072 86.2197 368.437 86.2197C368.916 86.2197 368.972 86.1054 368.803 85.465C368.381 83.6126 366.806 82.5605 364.416 82.5605C363.544 82.5605 362.559 82.7206 361.969 82.9722Z" fill="#E5EADD"/>
<path d="M375.666 82.7435C375.581 82.8349 375.356 83.4067 375.103 84.0471C374.878 84.6645 374.147 86.5856 373.5 88.278C372.403 91.1596 371.194 94.1556 370.8 95.0018C370.659 95.2762 370.8 95.3677 371.362 95.3677C372.009 95.3677 372.122 95.2076 372.656 93.6982C373.528 91.2282 373.331 91.3654 376.425 91.2968C379.519 91.2282 379.181 91.0224 380.194 93.7668C380.672 95.0704 380.813 95.2533 381.459 95.3219C381.881 95.3677 382.219 95.3677 382.219 95.3219C382.219 95.2762 381.066 92.4175 379.716 88.9641C377.325 82.9493 377.184 82.6749 376.481 82.6291C376.087 82.6062 375.722 82.652 375.666 82.7435ZM377.719 87.226C378.197 88.5753 378.534 89.856 378.45 90.0161C378.337 90.2448 377.775 90.3363 376.453 90.3363C375.131 90.3363 374.569 90.2448 374.456 90.0161C374.316 89.7417 375.834 85.0533 376.228 84.5502C376.509 84.1614 376.847 84.756 377.719 87.226Z" fill="#E5EADD"/>
<path d="M382.584 82.9493C382.219 83.704 382.753 83.9327 384.75 83.9327H386.719L386.775 89.5815C386.859 95.0703 386.887 95.2533 387.422 95.2533C387.956 95.2533 387.984 95.0703 388.069 89.5815L388.125 83.9327H390.262C392.372 83.9327 392.372 83.9327 392.288 83.3609L392.203 82.7663L387.45 82.7206C383.878 82.6977 382.669 82.7434 382.584 82.9493Z" fill="#E5EADD"/>
<path d="M325.969 90.6794C325.969 90.9538 326.363 91.0224 327.938 91.0224C329.512 91.0224 329.906 90.9538 329.906 90.6794C329.906 90.4049 329.512 90.3363 327.938 90.3363C326.363 90.3363 325.969 90.4049 325.969 90.6794Z" fill="#E5EADD"/>
</svg>
