<svg width="396" height="102" viewBox="0 0 396 102" fill="none" xmlns="http://www.w3.org/2000/svg">
<path d="M64.125 0.0686071C64.125 0.0914784 64.8281 0.708971 65.6719 1.4408C66.9937 2.60717 69.2156 5.14574 72.2531 9.03363C74.8687 12.3498 77.8781 18.2274 78.8906 21.9552C79.1437 22.8928 79.4813 23.8991 79.6219 24.1964C79.7625 24.4937 79.875 25.0426 79.875 25.4314C79.875 25.843 80.0156 26.9865 80.2125 28.0157C80.3813 29.022 80.4375 30.1426 80.325 30.4857L80.1562 31.1031H50.7656C28.0969 31.1031 21.375 31.1717 21.375 31.3776C21.375 31.5834 21.2906 31.5834 21.0375 31.3776C20.7844 31.1717 18.1406 31.1031 10.9125 31.1031H1.125V33.5045V35.9058H10.8C18.0281 35.9058 20.5594 35.8372 20.7 35.6314C20.8125 35.4713 20.925 34.7395 20.9531 33.9848C21.0375 31.652 21.1781 31.5605 21.3469 33.7332L21.5156 35.7915L34.0875 35.8372C41.0062 35.8601 46.8 35.9287 46.9688 36.0202C47.1375 36.0888 47.25 37.1179 47.25 38.3987C47.25 40.2969 47.1656 40.7314 46.6875 41.2345C46.1531 41.7834 45.9281 41.8291 42.8062 41.9435C39.0094 42.0807 37.0969 42.2637 36.7031 42.561C36.5625 42.6753 36.225 42.7668 35.9438 42.7668C35.6625 42.7668 35.2125 42.8583 34.9312 42.9726C34.6781 43.087 33.975 43.3614 33.3562 43.5901C31.6969 44.2534 29.5875 45.9 28.7719 47.2036C28.125 48.187 27.9844 48.7359 27.9 50.657C27.7594 53.4928 28.2375 54.7735 30.5156 57.5408C31.3594 58.5928 32.0625 59.5991 32.0625 59.7821C32.0625 60.0108 31.6688 60.1937 31.0219 60.2852C29.3906 60.5139 27.8437 61.2 26.2125 62.3435C24.3 63.7157 23.9062 64.3561 23.9062 66.1856C23.9062 68.2439 24.7781 69.7076 27.2812 71.9031C28.7437 73.1839 32.5969 75.5852 34.0312 76.0883C34.5656 76.2713 35.2687 76.5229 35.6062 76.6601C36.5625 77.026 42.2719 76.5915 42.6375 76.1341C42.7219 76.0197 43.0313 75.9283 43.3406 75.9283C43.6219 75.9283 44.1 75.8368 44.3813 75.7224C44.8875 75.5166 46.1531 75.0592 47.8125 74.4874C48.8531 74.1215 50.7937 73.4354 52.875 72.6807C53.5781 72.452 54.3656 72.1318 54.6187 72.0175C54.9 71.9031 55.3781 71.8117 55.6594 71.8117C55.9687 71.8117 56.3062 71.6973 56.3906 71.583C56.475 71.4686 56.925 71.3543 57.375 71.3543C57.825 71.3543 58.275 71.2399 58.3594 71.1256C58.4438 70.9883 59.7094 70.8969 61.1719 70.8969C62.6344 70.8969 63.9 70.9883 63.9844 71.1256C64.0688 71.2399 64.4062 71.3543 64.7437 71.3543C65.0531 71.3543 66.0375 71.9718 67.05 72.7722C69.1875 74.5332 70.0312 76.1798 70.0312 78.5583C70.0312 82.5377 65.3625 86.5399 59.7375 87.3632C57.8812 87.6377 57.6281 87.6148 55.9406 87.1345C54.9562 86.8601 53.9437 86.4713 53.6906 86.3112C53.4656 86.1282 53.1563 85.991 53.0438 85.991C52.7625 85.991 46.575 82.5148 46.4625 82.2861C46.4062 82.1946 46.2375 82.1031 46.0688 82.1031C45.9 82.1031 45.1969 81.7601 44.4656 81.3484C42.7781 80.365 42.2156 80.1592 38.8125 79.3359C36.1969 78.6726 27.1406 79.0614 26.0437 79.8619C25.875 79.9534 25.5375 80.0448 25.2844 80.0448C24.4688 80.0448 20.8406 81.7372 18.8719 83.0179C12.3187 87.3175 8.15625 93.7668 8.15625 99.53V101.886L9.30937 100.17C11.6156 96.717 15.5812 93.0578 19.6875 90.5422C20.7 89.9475 21.6562 89.3529 21.7969 89.2614C22.4437 88.8498 23.8781 88.2323 26.1562 87.3404C27.4781 86.8143 28.7719 86.3112 29.025 86.1969C29.3062 86.0825 29.7844 85.991 30.0656 85.991C30.375 85.991 30.6844 85.8996 30.7688 85.7852C30.8531 85.6709 31.4156 85.5336 31.9781 85.465C32.5687 85.3964 33.75 85.2135 34.5938 85.0762C36.5906 84.7332 43.1437 84.8475 43.65 85.2592C43.8187 85.3964 44.2687 85.5336 44.6344 85.5336C45 85.5336 45.5063 85.6251 45.7875 85.7395C46.0406 85.8538 46.7719 86.0596 47.3906 86.2197C48.0094 86.357 50.2875 87.1803 52.4531 88.0493C58.3031 90.3592 60.1875 91.0224 61.2281 91.0224C61.5656 91.0224 61.9312 91.1139 62.0156 91.2511C62.1 91.3883 63.4219 91.4798 64.9688 91.4798C66.5156 91.4798 67.8375 91.3883 67.9219 91.2511C68.0063 91.1139 68.3719 91.0224 68.6812 91.0224C69.8062 91.0224 72 89.4215 72.5906 88.1637C72.7594 87.7749 73.0125 87.2717 73.1813 86.9973C73.5188 86.4256 73.2938 80.4108 72.9 78.787C72.7313 78.1466 72.45 77.0717 72.2812 76.3856C71.325 72.5206 68.5687 68.5184 65.4469 66.5287C64.6875 66.0256 63.675 65.5453 63.225 65.4767C62.775 65.4081 62.3531 65.248 62.2687 65.1565C62.0719 64.8821 56.3344 64.9049 56.1094 65.1794C56.025 65.2937 55.6031 65.4081 55.2094 65.4081C53.6625 65.4081 49.7531 66.6202 43.3125 69.1359C36.8719 71.6287 35.4937 72.0404 33.3844 72.0404C29.475 72.0404 27.45 69.3874 29.5594 67.009C30.7406 65.6825 31.6406 65.065 33.4688 64.3561C34.3125 64.0359 35.2406 63.67 35.4937 63.5556C35.775 63.4413 36.4219 63.3498 36.9281 63.3498C37.4344 63.3498 37.9688 63.2583 38.1375 63.1211C38.2781 63.0067 40.5562 62.8695 43.1719 62.8238C51.4406 62.6637 55.2656 61.8632 57.8813 59.7363C59.7938 58.204 60.2719 57.0834 60.3 53.9731C60.3281 51.4117 60.3 51.3202 59.4281 50.0395C58.9219 49.3076 58.5 48.5758 58.5 48.3928C58.5 48.2099 58.8656 47.7525 59.3156 47.3637C59.9906 46.7691 60.3562 46.6547 61.425 46.6547C62.55 46.6547 62.775 46.7462 63.4219 47.4323C64.35 48.4157 65.25 50.3139 65.25 51.2516C65.25 51.6404 65.3625 51.9148 65.5031 51.8691C65.9531 51.7318 70.3125 47.3865 70.3125 47.0664C70.3125 46.5861 68.5687 44.3448 67.5562 43.5215C65.7 42.035 65.0813 41.8063 62.9438 41.7834C61.0594 41.7834 60.8906 41.8291 60.2156 42.4695C57.4031 45.1682 56.7281 45.7399 56.3906 45.7399C56.1938 45.7399 55.6875 45.4197 55.2938 45.0309C54.5625 44.3448 54.5625 44.2991 54.5625 40.2511C54.5625 37.4152 54.675 36.1117 54.9 35.9973C55.2375 35.8143 79.8469 35.8601 80.2125 36.0431C80.325 36.1117 80.4375 44.7336 80.4375 55.1852L80.4656 74.213L82.7719 75.0821C84.0375 75.5852 85.3312 76.0655 85.6406 76.157C85.95 76.2484 86.6531 76.5 87.2438 76.7058C87.8063 76.9117 88.3406 77.0717 88.425 77.0717C88.5094 77.0717 88.5938 75.2193 88.5938 72.9552C88.5938 70.691 88.7062 68.8386 88.8469 68.8386C88.9594 68.8386 90.2531 69.8448 91.7156 71.0798C97.9313 76.3399 100.828 77.3919 106.594 76.5C109.125 76.1112 112.95 74.213 115.959 71.8345C117.478 70.6682 121.5 66.7574 121.5 66.483C121.5 66.4144 121.922 65.774 122.428 65.0193C124.003 62.7552 124.678 60.7883 124.819 58.0211C124.987 54.5448 124.2 52.2121 121.781 49.1704C119.222 45.9457 115.059 43.3843 111.234 42.6296C109.603 42.3323 105.075 42.2637 103.922 42.5381C100.181 43.4529 94.4438 46.8605 91.0406 50.1996C90.2813 50.9543 89.5219 51.6175 89.4094 51.6404C89.2687 51.6861 89.1562 48.1641 89.1562 43.8188C89.1562 39.4735 89.2406 35.9058 89.3812 35.9058C95.3156 35.7915 161.437 35.883 161.662 35.9973C162.112 36.2031 162.141 42.6753 161.691 42.8812C161.55 42.9726 161.184 42.904 160.931 42.7211C159.975 42.1265 159.188 41.8749 155.109 40.9372C152.916 40.4341 146.109 40.8686 144.338 41.6004C144.084 41.7148 143.128 42.0807 142.228 42.4238C138.263 43.9103 133.791 47.7753 131.034 52.052C130.416 52.9897 129.938 53.9274 129.938 54.1561C129.938 54.3848 129.797 54.6821 129.656 54.7964C129.234 55.1395 129.263 59.2789 129.684 60.3309C131.428 64.7906 134.438 68.2668 139.275 71.3771C140.625 72.2462 141.806 72.9552 141.891 72.9552C142.003 72.9552 142.594 73.2525 143.241 73.5955C144.759 74.4188 148.866 75.9283 149.597 75.9283C149.906 75.9283 150.216 76.0197 150.3 76.1341C150.863 76.843 160.762 76.843 161.325 76.1341C161.409 76.0197 161.775 75.9283 162.169 75.9283C162.534 75.9283 162.844 75.8139 162.844 75.6996C162.844 75.5623 163.069 75.4709 163.35 75.4709C163.631 75.4709 163.969 75.3794 164.137 75.265C164.278 75.1507 165.15 74.739 166.078 74.3274C168.384 73.2982 170.128 72.2005 171.225 71.057C172.35 69.9363 173.306 68.404 173.081 68.1296C172.997 68.0152 170.691 67.9238 167.963 67.9238H163.012L161.578 69.0444C160.087 70.2336 158.231 71.1484 156.122 71.7431C154.547 72.2005 146.194 72.3148 145.097 71.9031C144.731 71.7659 143.831 71.4229 143.072 71.1713C141.581 70.6224 139.5 69.1587 138.684 68.061C137.531 66.5516 137.222 65.2937 137.334 62.7094C137.391 61.3601 137.587 59.8049 137.784 59.2332C138.347 57.5408 140.484 54.2018 142.116 52.4865C143.634 50.8628 146.644 48.6444 148.106 48.0269C148.556 47.8439 149.4 47.4552 149.963 47.1807C150.553 46.8834 151.256 46.6547 151.566 46.6547C151.875 46.6547 152.212 46.5404 152.297 46.426C152.381 46.2888 152.831 46.1973 153.281 46.1973C153.731 46.1973 154.181 46.083 154.266 45.9686C154.378 45.8314 155.953 45.7399 158.062 45.7399C160.172 45.7399 161.747 45.8314 161.859 45.9686C161.944 46.083 162.281 46.1973 162.562 46.1973C163.406 46.1973 165.094 47.0435 166.584 48.2099C168.497 49.6964 169.875 52.2578 169.875 54.2704V55.3453H172.969C174.684 55.3453 176.062 55.2767 176.062 55.2081C176.062 55.1166 175.556 54.2247 174.966 53.1955C174.122 51.7776 173.362 50.9543 171.731 49.6278L169.594 47.9354V42.035C169.594 37.6668 169.678 36.1117 169.931 35.9973C170.128 35.9058 172.434 35.8143 175.078 35.7915L179.859 35.7686V33.5045V31.2175L134.55 31.1489L89.2125 31.1031L89.0438 28.4045C88.5656 20.6973 86.9344 15.3 83.2781 9.46816C81.3375 6.42646 79.1437 3.86502 76.3312 1.3722L74.7562 0H69.4406C66.5156 0 64.125 0.0228713 64.125 0.0686071ZM51.525 45.0996C52.0875 45.3511 52.9594 46.0144 53.4375 46.609C54.225 47.5924 54.2812 47.7753 54.2812 49.8336C54.2812 52.3265 53.7469 53.5843 51.75 55.7112C50.7937 56.7404 46.8281 59.4619 46.2938 59.4619C46.1813 59.4619 45.7312 59.6448 45.3375 59.8735C44.0156 60.5825 42.4125 60.9027 40.05 60.8798C38.0812 60.857 37.575 60.7883 36.6469 60.3081C35.2969 59.622 34.0875 58.4785 33.5531 57.4265C32.9063 56.1686 33.1594 53.2413 34.0594 51.6861C35.4656 49.239 39.4312 46.3574 42.8906 45.2825C45.9 44.322 49.5281 44.2534 51.525 45.0996ZM106.116 48.5987C106.678 48.6901 107.156 48.8502 107.156 48.9646C107.156 49.0789 107.325 49.1704 107.55 49.1704C108.534 49.1704 111.656 50.9314 113.737 52.6924C115.847 54.4762 117.309 56.0771 118.463 57.9067C119.334 59.3018 119.362 59.439 119.391 62.2291C119.391 63.8529 119.25 65.3395 119.081 65.6596C118.069 67.4892 116.578 69.7076 115.931 70.3709C114.863 71.4457 113.119 72.4063 111.797 72.6121C110.391 72.8179 108.619 72.8408 108.366 72.6578C108.281 72.5664 107.775 72.4978 107.269 72.4978C106.762 72.4978 106.256 72.3834 106.172 72.2691C106.087 72.1318 105.806 72.0404 105.581 72.0404C105.019 72.0404 102.319 70.6224 100.631 69.4332C97.7625 67.4435 93.4594 62.6637 91.7156 59.5305C90.5344 57.3807 90.0844 55.2081 90.5344 53.9274C91.0125 52.6695 94.6969 49.6735 96.7781 48.8502C98.1844 48.3013 98.5219 48.2785 101.672 48.3471C103.528 48.3928 105.525 48.5072 106.116 48.5987Z" fill="white"/>
<path d="M0.225007 8.48469C-0.140618 8.66765 0.196881 9.74254 1.32188 11.8923C1.54688 12.3268 1.85626 12.8986 1.96876 13.1502C3.34687 15.8031 3.20624 15.6659 5.23124 16.4434C6.29999 16.8551 7.73437 17.4268 8.43749 17.6784C9.14062 17.9529 10.2094 18.6161 10.8562 19.165C12.0094 20.1255 12.4031 20.6972 14.625 24.5394L15.7781 26.5519L16.8187 26.4833C17.775 26.4147 17.8594 26.3461 17.9437 25.6371C18 25.1797 17.7187 24.1963 17.1844 23.1214C16.7344 22.1609 16.2 20.9259 16.0312 20.3542C15.2156 17.8156 13.4156 13.7905 12.7406 13.0587C11.8125 12.0524 10.7156 11.252 10.0687 11.069C9.78749 11.0004 9.56249 10.8403 9.56249 10.7259C9.56249 10.6116 9.42187 10.5201 9.28124 10.5201C9.11249 10.5201 8.38124 10.3143 7.64999 10.0398C6.91874 9.76541 6.07499 9.4681 5.76562 9.37662C5.45624 9.28514 4.69687 9.03357 4.07812 8.82774C2.78438 8.39321 0.787506 8.21025 0.225007 8.48469Z" fill="white"/>
<path d="M7.22812 41.3032C6.89062 41.5777 7.00312 73.3898 7.31249 73.8929C7.48124 74.1216 7.73437 74.3275 7.90312 74.3275C8.07187 74.3275 8.54999 74.5104 8.94374 74.762C9.36562 74.9907 10.2656 75.4252 10.9687 75.7454C14.0625 77.1405 14.5125 77.3463 14.7375 77.5521C14.9062 77.6665 15.1312 77.758 15.2437 77.758C15.3562 77.758 15.4406 69.5476 15.4125 59.5077L15.3281 41.2804L11.3625 41.2118C9.19687 41.1889 7.34062 41.2346 7.22812 41.3032Z" fill="white"/>
<path d="M241.312 50.2453C241.312 50.3596 241.256 52.3722 241.228 54.7735C241.172 58.5014 241.116 59.096 240.75 59.0274C239.878 58.8444 235.687 58.73 235.012 58.8673C232.172 59.439 231.103 67.4435 232.987 74.0301C233.269 75.1049 234.056 76.1112 234.787 76.3857C235.209 76.5457 235.772 76.7516 236.025 76.8659C236.306 76.9803 238.162 77.0718 240.187 77.0718H243.844V63.5785V50.0852H242.578C241.875 50.0852 241.312 50.1538 241.312 50.2453ZM240.694 62.1605C241.312 62.5493 241.312 62.5722 241.256 68.2668L241.172 73.9843L239.484 74.0529C235.603 74.213 235.209 73.8014 234.956 69.3417C234.759 65.8655 235.125 62.8238 235.856 62.1834C236.503 61.5888 239.737 61.5659 240.694 62.1605Z" fill="white"/>
<path d="M315.056 63.5099L315.141 76.9574L316.35 77.026L317.531 77.0946V70.0278C317.531 64.1502 317.587 62.8924 317.925 62.6637C318.572 62.252 322.453 62.0691 322.762 62.4579C322.903 62.6408 323.072 65.957 323.156 69.8677L323.297 76.9574H324.562H325.828L325.912 70.4395C326.025 62.778 325.744 60.3309 324.675 59.4619C324.084 58.9587 323.747 58.8901 322.228 58.913C321.272 58.913 319.922 59.096 319.247 59.3018C318.544 59.5076 317.897 59.622 317.756 59.5534C317.644 59.4848 317.531 57.335 317.531 54.7507V50.0852H316.266H315L315.056 63.5099Z" fill="white"/>
<path d="M204.131 57.1062L204.047 58.8901L203.147 58.9587L202.219 59.0273V60.6282V62.2062H203.203H204.188V67.5578C204.188 74.4187 204.328 75.4479 205.313 76.4313C206.1 77.186 206.128 77.186 208.406 77.1403C209.672 77.1174 210.853 77.0031 211.022 76.8658C211.191 76.7286 211.613 76.6143 211.95 76.6143C212.738 76.6143 212.794 76.477 212.681 74.9676L212.569 73.7555H209.869C207.225 73.7555 207.169 73.7327 206.972 73.1838C206.859 72.8636 206.775 70.2793 206.747 67.3977L206.719 62.2062H207.366C207.731 62.2062 208.125 62.1147 208.294 62.0004C208.434 61.8632 209.363 61.7488 210.347 61.7031L212.147 61.6345V60.3766V59.1188L209.503 59.0044L206.859 58.8901L206.775 57.1062L206.691 55.3452H205.453H204.216L204.131 57.1062Z" fill="white"/>
<path d="M278.381 57.1061L278.297 58.89L277.397 58.9586L276.469 59.0272V60.6281V62.2061H277.453H278.438L278.466 67.855C278.494 74.6703 278.634 75.7223 279.675 76.5685C280.378 77.1402 280.575 77.186 282.684 77.1631C283.95 77.1402 285.103 77.003 285.272 76.8658C285.441 76.7286 285.863 76.6142 286.2 76.6142C286.988 76.6142 287.044 76.477 286.931 74.9447L286.819 73.7326L284.175 73.8241L281.531 73.9156L281.25 73.3209C281.081 72.955 280.969 70.4622 280.969 67.4433V62.2061H281.644C282.038 62.2061 282.431 62.0918 282.516 61.9774C282.6 61.8402 283.5 61.7487 284.513 61.7487H286.313V60.3765V59.0272L283.725 58.9586L281.109 58.89L280.969 57.1747L280.828 55.4595L279.647 55.3909L278.466 55.3223L278.381 57.1061Z" fill="white"/>
<path d="M361.631 57.1062L361.547 58.8901L360.647 58.9587L359.719 59.0273V60.6053V62.1833L360.647 62.2519L361.547 62.3205L361.716 68.7241C361.856 74.2587 361.941 75.2421 362.391 75.9053C363.066 76.9344 364.444 77.3918 366.469 77.2089C368.381 77.0259 370.266 76.5228 370.238 76.1797C370.209 76.0425 370.181 75.4479 370.181 74.8304L370.125 73.7555L367.481 73.8241L364.866 73.9156L364.528 73.1609C364.331 72.7035 364.219 70.5309 364.219 67.3291V62.2062H364.866C365.231 62.2062 365.625 62.1147 365.794 62.0004C365.934 61.8631 366.863 61.7488 367.875 61.7031L369.703 61.6344L369.788 60.308L369.872 59.0044H367.481C364.162 59.0044 364.219 59.0501 364.219 57.0376V55.3452H362.953H361.716L361.631 57.1062Z" fill="white"/>
<path d="M191.812 59.0274C190.012 59.3019 189.478 60.0795 189.084 62.9382C188.803 65.1566 189.281 66.0485 191.925 68.084C196.622 71.766 196.819 71.949 196.734 72.5893C196.566 73.7557 196.228 73.8701 192.769 73.8701H189.562V75.4709V77.0718H193.444C198.731 77.0718 198.844 77.0032 199.603 72.6579C199.687 72.2005 199.575 71.3086 199.378 70.714C198.956 69.5705 197.353 68.1068 193.866 65.6597C192.037 64.3562 191.644 63.7387 192.094 62.801C192.347 62.2064 192.403 62.2064 195.328 62.2064H198.281V60.4911V58.7759L195.694 58.7988C194.259 58.8216 192.516 58.9131 191.812 59.0274Z" fill="white"/>
<path d="M304.65 59.0274C303.075 59.279 301.922 60.3081 301.472 61.8633C300.994 63.6243 300.825 69.822 301.191 72.3606C301.556 74.8992 302.231 76.2028 303.469 76.7288C304.538 77.1862 310.556 77.2319 311.006 76.7745C311.175 76.6144 311.287 76.0655 311.231 75.5853C311.175 75.0821 311.119 74.4646 311.091 74.2131C311.062 73.7557 310.978 73.7557 308.559 73.9386C306.619 74.0987 305.859 74.0759 305.241 73.8243C303.834 73.2754 303.638 72.5893 303.638 68.0153C303.638 64.3333 303.694 63.7615 304.172 63.0297C304.481 62.5723 304.931 62.2063 305.213 62.2063C305.466 62.2063 305.775 62.092 305.859 61.9776C305.944 61.8404 306.394 61.7489 306.844 61.7489C307.294 61.7489 307.744 61.8404 307.828 61.9776C307.913 62.092 308.616 62.2063 309.403 62.2063H310.781V60.7427V59.279L309.375 59.0274C307.744 58.7301 306.394 58.7301 304.65 59.0274Z" fill="white"/>
<path d="M334.125 59.1188C333.281 59.3017 331.959 59.5762 331.172 59.7591L329.766 60.0793L329.794 61.2686C329.85 62.778 330.131 63.0295 331.313 62.6865C331.819 62.5493 333.197 62.3663 334.378 62.2977C337.191 62.1147 337.556 62.3892 337.444 64.5161L337.359 65.9798L335.109 66.46C331.706 67.1919 331.031 67.4892 330.103 68.6784C329.428 69.5246 329.231 71.1026 329.484 73.5497C329.681 75.4708 329.738 75.608 330.666 76.317L331.622 77.0717H335.841H340.031L340.003 69.113C340.003 60.2394 339.919 59.8277 338.344 59.1874C337.219 58.7071 336.291 58.7071 334.125 59.1188ZM337.359 71.5829V73.7556L335.138 73.8242C332.325 73.9156 331.875 73.6412 331.875 71.926C331.875 70.8739 331.959 70.6681 332.606 70.3251C333.028 70.1192 333.844 69.8677 334.463 69.8219C335.053 69.7533 335.616 69.5932 335.7 69.4789C335.784 69.3645 336.206 69.2959 336.6 69.3417L337.359 69.4103V71.5829Z" fill="white"/>
<path d="M393.469 59.805C392.625 60.3539 391.753 60.8113 391.584 60.8342C391.359 60.8342 391.219 60.514 391.219 59.9194V59.0046H389.813H388.406L388.462 67.9696L388.547 76.9575H389.813H391.078L391.134 70.6911C391.162 67.2378 391.247 64.2875 391.331 64.1274C391.416 63.9674 391.95 63.6243 392.541 63.3956C396.197 61.8633 396 62.0005 395.803 61.223C395.719 60.8113 395.494 60.1023 395.325 59.6221L395.016 58.7759L393.469 59.805Z" fill="white"/>
<path d="M216.844 64.4246C216.872 71.6744 217.153 74.2358 218.081 75.4479C219.094 76.7515 220.022 77.0717 222.806 77.0717C227.981 77.0717 228.628 75.6309 228.656 64.3102V59.0044H227.419H226.181L226.069 65.7282C225.984 72.1546 225.956 72.4977 225.394 73.1152C224.241 74.3501 221.259 74.3501 220.106 73.1152C219.544 72.4977 219.516 72.1546 219.431 65.7282L219.347 59.0044H218.081H216.844V64.4246Z" fill="white"/>
<path d="M251.044 59.1875C250.594 59.2789 249.891 59.7135 249.441 60.148C248.794 60.8112 248.597 61.3144 248.372 62.8924C248.063 64.9964 247.922 71.0341 248.147 71.583C248.231 71.7659 248.372 72.4978 248.428 73.2067C248.513 73.9157 248.822 74.8991 249.159 75.4023C250.088 76.8888 250.65 77.0718 254.503 77.0718C256.359 77.0718 258.047 77.0032 258.3 76.9345C258.638 76.8202 258.75 76.4771 258.75 75.4937C258.75 74.7848 258.638 74.0987 258.525 73.9614C258.384 73.7785 257.653 73.7785 256.078 73.9157C252 74.2816 251.1 73.8242 250.763 71.2171C250.622 70.0736 250.65 69.639 250.931 69.4789C251.128 69.3875 252.956 69.296 254.953 69.3189L258.609 69.3417L258.694 65.7283C258.778 61.6803 258.413 60.2395 257.063 59.5305C256.303 59.1189 252.534 58.913 251.044 59.1875ZM256.219 62.8238C256.697 63.3269 256.781 63.6928 256.725 64.9278L256.641 66.4372L253.856 66.5058C252.309 66.5287 250.959 66.483 250.847 66.3915C250.284 65.9341 250.678 63.2812 251.381 62.5951C251.719 62.2978 252.253 62.2063 253.716 62.2063C255.431 62.2063 255.656 62.252 256.219 62.8238Z" fill="white"/>
<path d="M262.463 67.9694L262.547 76.9573H263.812H265.078L265.134 70.2564C265.162 66.5515 265.247 63.3954 265.331 63.2125C265.416 63.0295 265.725 62.8923 266.006 62.8923C266.287 62.8923 266.653 62.7779 266.822 62.6407C266.962 62.5264 267.722 62.4349 268.481 62.4806C269.747 62.5492 269.916 62.6178 270.337 63.3497C270.787 64.0587 270.844 64.9277 270.844 70.5995V77.0717H272.109H273.375V69.799C273.375 59.4618 273.15 58.8443 269.437 59.073C268.425 59.1416 267.187 59.3703 266.681 59.5761C265.641 60.0107 264.853 59.8963 265.106 59.3474C265.247 59.073 265.022 59.0044 263.841 59.0044H262.406L262.463 67.9694Z" fill="white"/>
<path d="M344.25 69.7075C344.25 75.608 344.306 80.4793 344.363 80.525C344.447 80.5936 345.009 80.5936 345.628 80.5479L346.781 80.4564V78.6954V76.9344L350.1 77.0031C352.491 77.0717 353.503 77.003 353.813 76.7972C354.6 76.2712 355.247 75.2421 355.5 74.1443C355.753 73.0923 355.922 63.99 355.697 63.3268C355.641 63.1667 355.444 62.5035 355.247 61.9089C354.825 60.4452 353.756 59.3246 352.631 59.1416C352.153 59.073 350.072 59.0044 348.019 59.0044H344.25V69.7075ZM352.069 62.2062C352.997 62.9152 353.109 63.5555 353.109 68.3811C353.109 74.03 353.081 74.0986 350.156 74.0986C349.088 74.0986 347.878 73.9842 347.484 73.8241L346.781 73.5726V67.9237C346.781 63.8528 346.866 62.2291 347.119 62.0232C347.316 61.8631 348.272 61.7488 349.453 61.7488C351.084 61.7488 351.563 61.8403 352.069 62.2062Z" fill="white"/>
<path d="M376.453 59.1418C373.95 59.6449 373.219 61.6346 373.163 67.9239C373.134 73.1382 373.866 75.7911 375.581 76.683C376.144 77.0032 377.016 77.0718 379.659 77.0718C381.516 77.0718 383.203 77.0032 383.456 76.9346C383.794 76.8203 383.906 76.4772 383.906 75.4938C383.906 74.7848 383.794 74.0987 383.681 73.9615C383.541 73.7786 382.809 73.7786 381.234 73.9158C377.241 74.2817 376.425 73.87 375.975 71.3086C375.638 69.2961 375.694 69.2732 380.081 69.3189L383.766 69.3418V65.3853C383.766 59.7593 383.372 59.2104 379.266 59.0961C378.028 59.0503 376.763 59.0732 376.453 59.1418ZM381.347 62.7553C381.881 63.2127 381.966 63.4871 381.881 64.8593L381.797 66.4373H378.844H375.891L375.947 64.7449C376.031 62.4808 376.341 62.2064 378.844 62.2064C380.447 62.2064 380.813 62.275 381.347 62.7553Z" fill="white"/>
<path d="M82.3781 83.4067C81.0563 84.413 80.5781 85.648 81 86.9287C81.4219 88.1866 82.6594 88.8955 85.4156 89.3987C87.2156 89.7417 89.1563 91.0224 89.1563 91.8458C89.1563 92.6005 88.4531 93.6982 87.7781 93.9955C87.4688 94.1099 86.4563 94.2242 85.5281 94.2242C83.5031 94.2242 82.2938 93.561 82.0125 92.2803C81.8438 91.6171 81.7031 91.4798 81.1125 91.4798C80.4375 91.4798 80.4094 91.5484 80.5781 92.2117C81.0281 93.9269 82.2094 94.9561 84.15 95.3906C86.5406 95.8937 89.0156 95.0704 89.9719 93.4466C91.35 91.1825 90.1125 89.1928 86.9063 88.5067C84.5719 88.0265 83.2219 87.5233 82.6875 86.9516C80.775 84.9848 84.375 82.5605 87.1313 83.9327C87.7219 84.2301 88.2563 84.7561 88.5094 85.3049C88.8188 85.9224 89.1281 86.2197 89.4938 86.2197C89.9719 86.2197 90.0281 86.1054 89.8594 85.465C89.325 83.4067 88.0031 82.5605 85.3031 82.5605C83.6156 82.5605 83.4469 82.6063 82.3781 83.4067Z" fill="white"/>
<path d="M96.1031 83.0408C94.6687 83.6583 93.4875 85.0762 93.0656 86.6314C92.4469 89.1242 93.15 92.6462 94.5562 93.9955C96.2156 95.5964 99.2531 95.9623 101.475 94.8188C102.347 94.3843 102.881 93.8583 103.387 93.0121C104.259 91.457 104.259 91.0224 103.359 91.0224C102.825 91.0224 102.656 91.1368 102.656 91.4798C102.656 92.1659 101.925 93.1951 101.081 93.7439C99.9562 94.4758 97.3687 94.43 96.2437 93.6525C94.8094 92.6691 94.2187 91.3197 94.2187 88.987C94.2187 85.991 95.175 84.4587 97.5094 83.704C99.3375 83.1323 101.672 84.0471 102.516 85.6709C102.769 86.1969 103.106 86.4484 103.5 86.4484C103.978 86.4484 104.034 86.357 103.894 85.8081C103.5 84.5045 102.516 83.4525 101.194 82.8807C100.069 82.4004 97.3969 82.4919 96.1031 83.0408Z" fill="white"/>
<path d="M107.297 82.8349C107.213 82.995 107.184 85.8537 107.213 89.1928C107.297 95.0703 107.325 95.2533 107.859 95.2533C108.394 95.2533 108.422 95.0703 108.506 92.2345L108.591 89.2156L111.966 89.147C113.85 89.1013 115.481 89.1241 115.622 89.1928C115.734 89.2614 115.903 90.6564 115.931 92.2802C116.016 95.1618 116.044 95.2533 116.663 95.3219L117.281 95.3905V88.9641V82.5376L116.663 82.6062C116.044 82.6748 116.016 82.7663 115.931 85.3735L115.847 88.0721L112.275 88.0035L108.703 87.9349L108.563 85.3049C108.45 83.0407 108.366 82.6748 107.916 82.6062C107.663 82.5605 107.381 82.6748 107.297 82.8349Z" fill="white"/>
<path d="M123.553 83.0865C121.331 84.047 120.234 85.9452 120.234 88.8497C120.234 91.2282 120.488 92.0972 121.528 93.4008C122.906 95.0932 125.381 95.8708 127.716 95.3676C129.431 95.0017 130.5 94.2699 131.456 92.8519C133.003 90.5421 132.75 86.4026 130.922 84.3901C129.262 82.5376 126.112 81.9887 123.553 83.0865ZM128.559 84.23C130.078 85.0304 130.866 86.6084 130.894 88.8268C130.922 91.091 130.303 92.5318 128.925 93.538C128.081 94.1327 127.744 94.2241 126.281 94.2241C124.903 94.2241 124.481 94.1327 123.722 93.6066C122.344 92.669 121.725 91.2968 121.725 89.1927C121.725 87.386 122.091 86.0824 122.878 85.099C124.003 83.6811 126.759 83.2466 128.559 84.23Z" fill="white"/>
<path d="M138.262 83.0865C134.072 84.9848 133.903 92.4632 138.009 94.7731C139.022 95.3448 139.5 95.4592 140.962 95.4592C143.944 95.4592 145.997 94.1785 146.784 91.8229C147.234 90.4964 147.15 87.1803 146.672 85.8538C146.222 84.6188 144.703 83.2238 143.353 82.8121C142.031 82.4005 139.5 82.5377 138.262 83.0865ZM143.269 84.1614C144.619 84.8247 145.434 86.1969 145.603 88.1179C145.828 90.5421 145.322 92.2117 144.028 93.3094C143.016 94.1785 142.875 94.2242 141.244 94.2242C139.725 94.2242 139.416 94.1327 138.544 93.5381C137.166 92.5318 136.547 91.091 136.575 88.8269C136.575 86.6314 137.391 85.0305 138.909 84.23C140.119 83.5668 142.031 83.5211 143.269 84.1614Z" fill="white"/>
<path d="M150.469 88.9641V95.3905L154.491 95.3219L158.484 95.2533V94.6815V94.1098L155.194 94.0412L151.875 93.9726L151.819 88.3237L151.734 82.6748L151.116 82.6062L150.469 82.5376V88.9641Z" fill="white"/>
<path d="M168.3 83.2924C166.134 84.4816 165.516 85.6937 165.516 88.8498C165.516 91.6857 165.853 92.7148 167.147 93.904C168.356 95.0475 169.453 95.4363 171.422 95.4363C175.303 95.4363 177.469 93.1265 177.469 88.9641C177.469 84.8018 175.331 82.5605 171.338 82.5605C169.903 82.5605 169.453 82.6749 168.3 83.2924ZM173.334 84.0471C175.219 84.7789 176.259 87.1117 175.978 89.9475C175.781 91.7771 174.825 93.3323 173.531 93.8812C172.575 94.2928 170.466 94.3386 169.481 93.9727C167.569 93.2637 166.472 90.4507 167.006 87.5462C167.316 85.8309 168.244 84.5731 169.622 84.0014C170.55 83.6126 172.266 83.6354 173.334 84.0471Z" fill="white"/>
<path d="M180.844 89.0098C180.844 95.1847 180.872 95.3676 181.406 95.3676C181.913 95.3676 181.969 95.1847 182.025 92.3259L182.109 89.3071L185.287 89.2385C188.184 89.1927 188.438 89.147 188.438 88.7353C188.438 88.3237 188.184 88.2779 185.287 88.2322L182.109 88.1636V86.1053V84.047L185.709 83.9784L189.309 83.9098L189.225 83.338L189.141 82.7434L184.978 82.7205L180.844 82.6748V89.0098Z" fill="white"/>
<path d="M197.156 89.0098V95.3676H201.797H206.438V94.6815V93.9954H202.528C200.222 93.9954 198.562 93.904 198.506 93.7667C198.478 93.6524 198.478 92.6004 198.562 91.434L198.703 89.3071L202.162 89.2385C205.341 89.1927 205.594 89.147 205.594 88.7353C205.594 88.3237 205.341 88.2779 202.162 88.2322L198.703 88.1636L198.562 86.2654C198.478 85.2362 198.478 84.2757 198.506 84.1614C198.562 84.0241 200.166 83.9327 202.359 83.9327C204.441 83.9327 206.184 83.8412 206.269 83.7497C206.353 83.6353 206.353 83.3609 206.269 83.1093C206.128 82.6977 205.819 82.6748 201.628 82.6748H197.156V89.0098Z" fill="white"/>
<path d="M210.178 82.7208L209.531 82.8123V89.1015C209.531 95.2078 209.531 95.3679 210.094 95.3679C210.628 95.3679 210.656 95.2078 210.656 90.3594C210.656 87.4777 210.769 85.2822 210.909 85.1907C211.078 85.1221 211.781 85.9683 212.512 87.0661C215.944 92.2118 217.969 95.0477 218.334 95.2307C218.559 95.345 218.953 95.3679 219.206 95.2993C219.628 95.162 219.656 94.5446 219.6 88.9185C219.516 83.0181 219.487 82.6751 219.009 82.6751C218.503 82.6751 218.475 82.9952 218.447 87.7064C218.391 91.6858 218.306 92.7378 218.025 92.7378C217.828 92.7378 217.125 91.9145 216.45 90.9082C214.312 87.6378 210.881 82.5607 210.825 82.5836C210.825 82.6064 210.516 82.6751 210.178 82.7208Z" fill="white"/>
<path d="M225.703 83.1094C223.594 84.1157 222.469 86.174 222.469 89.0785C222.469 91.1368 223.088 92.852 224.213 93.904C226.378 95.8937 229.387 96.0538 231.778 94.2928C232.397 93.8354 232.959 93.5381 233.044 93.6067C233.156 93.6753 233.297 94.0641 233.409 94.4529C233.494 94.8417 233.719 95.1848 233.859 95.2076C234.028 95.2305 234.169 94.0184 234.225 91.983L234.309 88.7354H231.609C229.134 88.7354 228.938 88.7583 228.938 89.1928C228.938 89.6045 229.134 89.6502 230.878 89.6502C233.213 89.6502 233.466 89.9247 232.734 91.6856C231.975 93.561 230.203 94.4987 227.925 94.2242C225.675 93.9498 224.438 92.7605 223.847 90.2677C223.509 88.804 223.931 86.4027 224.747 85.3507C226.406 83.0865 230.597 82.9493 232.116 85.0991C232.537 85.7166 232.931 85.991 233.353 85.991C233.916 85.991 233.944 85.9224 233.719 85.3964C232.819 83.5211 231.019 82.5605 228.459 82.5834C227.306 82.5834 226.519 82.7435 225.703 83.1094Z" fill="white"/>
<path d="M237.797 82.8351C237.712 82.9952 237.684 85.8539 237.741 89.1929L237.797 95.2535L238.444 95.3221L239.062 95.3907L239.006 89.0328C238.922 83.1781 238.894 82.675 238.416 82.6064C238.162 82.5606 237.881 82.6521 237.797 82.8351Z" fill="white"/>
<path d="M242.719 88.9872C242.719 95.2078 242.719 95.3679 243.281 95.3679C243.816 95.3679 243.844 95.2078 243.844 90.3594C243.844 87.5006 243.956 85.2822 244.097 85.1907C244.238 85.1221 245.587 86.906 247.106 89.1244C251.1 95.0934 251.241 95.2535 252.028 95.2535H252.703V88.9643C252.703 83.5212 252.647 82.6751 252.281 82.6751C251.916 82.6751 251.859 83.4298 251.775 87.7522C251.719 91.9145 251.634 92.8522 251.325 92.8522C251.1 92.8522 250.65 92.4177 250.312 91.8688C249.975 91.3428 248.428 89.0329 246.909 86.7688C244.434 83.1325 244.013 82.6064 243.394 82.6064H242.719V88.9872Z" fill="white"/>
<path d="M256.5 89.0326V95.3676L261.084 95.3219L265.641 95.2533L265.725 94.6358L265.809 94.0183L261.788 93.9497L257.766 93.8811V91.8228C257.766 90.6793 257.85 89.6273 257.991 89.4672C258.187 89.2842 259.256 89.1927 261.591 89.1927C264.741 89.1927 264.938 89.1699 264.938 88.7353C264.938 88.3008 264.741 88.2779 261.591 88.2779C259.256 88.2779 258.188 88.1865 258.019 87.9806C257.878 87.8434 257.766 86.8829 257.766 85.8766V84.047L261.647 83.9784L265.528 83.9098L265.444 83.338L265.359 82.7663L260.916 82.7205L256.5 82.6748V89.0326Z" fill="white"/>
<path d="M268.706 82.9036C268.622 83.0408 268.622 85.8538 268.65 89.1928L268.734 95.2534H273.375H278.016L278.1 94.6359L278.184 94.0184L274.163 93.9498L270.141 93.8812V91.5942V89.3072L273.741 89.2386C277.059 89.1928 277.313 89.1471 277.313 88.7354C277.313 88.3238 277.059 88.278 273.741 88.2323L270.141 88.1637V86.1054V84.0471L274.022 83.9785L277.903 83.9099L277.819 83.3381L277.734 82.7664L273.262 82.7206C270.45 82.6978 268.763 82.7664 268.706 82.9036Z" fill="white"/>
<path d="M281.081 82.9035C280.997 83.0408 280.997 85.8538 281.025 89.1928C281.109 95.0704 281.137 95.2533 281.672 95.2533C282.206 95.2533 282.234 95.0704 282.375 92.5089L282.516 89.7645L284.963 89.6959C287.128 89.6502 287.466 89.6959 287.944 90.1076C288.534 90.6336 288.844 91.6856 288.844 93.3094C288.844 95.0017 289.069 95.3677 290.025 95.3677C290.728 95.3677 290.841 95.2991 290.672 94.956C290.306 94.247 289.997 92.7605 289.969 91.6399C289.969 90.4964 289.603 89.7188 288.9 89.2843C288.534 89.0784 288.563 88.9869 289.069 88.5982C291.038 87.1116 290.756 84.047 288.534 83.1322C287.55 82.6977 281.25 82.5147 281.081 82.9035ZM287.859 84.2986C289.266 85.0533 289.041 87.752 287.494 88.2322C286.538 88.5524 286.312 88.5753 284.147 88.5295L282.375 88.5067V86.3798C282.375 85.1905 282.459 84.1614 282.572 84.0928C282.966 83.7497 287.156 83.9327 287.859 84.2986Z" fill="white"/>
<path d="M293.766 82.8578C293.681 83.0178 293.653 85.8537 293.681 89.1927C293.766 95.0017 293.794 95.2533 294.3 95.2533C294.834 95.2533 294.863 95.0017 294.919 89.1927C294.947 85.8766 294.919 83.0178 294.834 82.8578C294.638 82.469 293.934 82.469 293.766 82.8578Z" fill="white"/>
<path d="M298.519 82.8807C298.462 83.0179 298.434 85.8538 298.462 89.1928C298.547 95.0704 298.575 95.2534 299.109 95.2534C299.644 95.2534 299.672 95.0933 299.728 90.4507C299.756 87.7978 299.784 85.4879 299.812 85.3049C299.812 84.6646 300.487 85.5336 303.75 90.4049C306.619 94.7045 307.097 95.2534 307.687 95.2534H308.391L308.475 89.1014C308.531 82.9722 308.503 82.5834 307.631 82.5605C307.491 82.5605 307.406 84.8933 307.406 87.7292C307.406 91.7543 307.322 92.8749 307.069 92.8063C306.872 92.7377 305.184 90.4507 303.328 87.7063C300.487 83.4982 299.841 82.6978 299.306 82.6749C298.941 82.652 298.575 82.7435 298.519 82.8807Z" fill="white"/>
<path d="M315.422 82.9493C312.891 84.0242 311.794 85.8309 311.766 88.9641C311.766 91.3197 312.047 92.1202 313.369 93.6525C315.281 95.8708 318.797 96.1682 321.075 94.2928C322.144 93.4238 322.509 93.4924 322.65 94.5673C322.706 95.0018 322.903 95.2534 323.156 95.2534C323.522 95.2534 323.578 94.7502 323.578 92.0516V88.8498L320.85 88.7812C318.263 88.7125 318.094 88.7354 318.094 89.1699C318.094 89.5816 318.319 89.6273 320.147 89.696L322.172 89.7646L322.144 90.8166C322.116 93.6296 318.403 95.2762 315.422 93.7668C314.944 93.5152 314.241 92.8291 313.875 92.2345C313.312 91.2968 313.2 90.7937 313.2 88.9412C313.2 86.5856 313.763 85.2592 315.084 84.3672C317.25 82.9493 320.4 83.4067 321.609 85.3278C322.059 85.991 323.156 86.2655 323.156 85.6937C323.156 85.0991 321.637 83.4982 320.625 83.0408C319.331 82.4462 316.688 82.4004 315.422 82.9493Z" fill="white"/>
<path d="M335.784 83.0178C333.309 84.0699 332.297 86.151 332.494 89.5587C332.747 93.4237 334.631 95.4134 338.063 95.4591C340.847 95.482 342.816 94.1098 343.547 91.6398C343.716 91.0909 343.659 91.0223 343.041 91.0223C342.478 91.0223 342.309 91.1596 342.169 91.7542C341.888 92.8519 340.734 93.9497 339.497 94.247C336.403 95.0017 333.956 93.0349 333.647 89.5358C333.309 85.9223 335.616 83.2008 338.709 83.5439C340.144 83.7039 341.128 84.2986 341.944 85.4878C342.563 86.4026 343.181 86.6999 343.519 86.2425C343.603 86.151 343.322 85.4878 342.9 84.8246C341.916 83.2465 340.566 82.5604 338.344 82.5833C337.388 82.5833 336.403 82.7434 335.784 83.0178Z" fill="white"/>
<path d="M346.669 82.7206C346.191 82.835 346.163 83.0866 346.275 87.5462C346.388 91.6857 346.472 92.4175 346.978 93.3323C347.822 94.8417 349.003 95.4592 351.112 95.4592C355.5 95.4363 356.541 93.6753 356.4 86.6085C356.344 82.7435 356.316 82.5605 355.781 82.5605C355.303 82.5605 355.219 82.7206 355.191 83.5211C355.191 84.07 355.134 85.991 355.106 87.8206C355.05 89.6502 354.937 91.5027 354.825 91.9601C354.572 92.9435 353.503 93.9269 352.519 94.1327C351.366 94.3614 349.594 94.0641 348.863 93.5153C347.822 92.7148 347.597 91.5942 347.625 87.1803C347.625 84.9619 347.653 82.9951 347.625 82.835C347.625 82.5605 347.541 82.5377 346.669 82.7206Z" fill="white"/>
<path d="M361.969 82.9722C360.844 83.4525 359.719 85.0305 359.719 86.1054C359.719 87.6605 361.013 88.6211 364.163 89.3987C367.453 90.1991 368.494 91.2283 367.706 92.8292C366.975 94.2928 364.809 94.8417 362.644 94.1099C361.884 93.8583 361.519 93.5153 361.041 92.6462C360.619 91.8457 360.253 91.4798 359.888 91.4798C359.438 91.4798 359.381 91.5942 359.55 92.2117C360.056 94.3157 361.716 95.4592 364.388 95.4592C367.228 95.4592 368.972 94.2928 369.197 92.2345C369.45 90.0848 368.466 89.0785 365.456 88.4839C362.588 87.9121 361.125 87.0202 361.125 85.8309C361.125 84.8018 361.519 84.2529 362.531 83.8184C364.416 83.0179 366.497 83.6126 367.341 85.2135C367.734 85.8996 368.072 86.2197 368.438 86.2197C368.916 86.2197 368.972 86.1054 368.803 85.465C368.381 83.6126 366.806 82.5605 364.416 82.5605C363.544 82.5605 362.559 82.7206 361.969 82.9722Z" fill="white"/>
<path d="M375.666 82.7435C375.581 82.8349 375.356 83.4067 375.103 84.0471C374.878 84.6645 374.147 86.5856 373.5 88.278C372.403 91.1596 371.194 94.1556 370.8 95.0018C370.659 95.2762 370.8 95.3677 371.362 95.3677C372.009 95.3677 372.122 95.2076 372.656 93.6982C373.528 91.2282 373.331 91.3654 376.425 91.2968C379.519 91.2282 379.181 91.0224 380.194 93.7668C380.672 95.0704 380.813 95.2533 381.459 95.3219C381.881 95.3677 382.219 95.3677 382.219 95.3219C382.219 95.2762 381.066 92.4175 379.716 88.9641C377.325 82.9493 377.184 82.6749 376.481 82.6291C376.087 82.6062 375.722 82.652 375.666 82.7435ZM377.719 87.226C378.197 88.5753 378.534 89.856 378.45 90.0161C378.337 90.2448 377.775 90.3363 376.453 90.3363C375.131 90.3363 374.569 90.2448 374.456 90.0161C374.316 89.7417 375.834 85.0533 376.228 84.5502C376.509 84.1614 376.847 84.756 377.719 87.226Z" fill="white"/>
<path d="M382.584 82.9494C382.219 83.7041 382.753 83.9328 384.75 83.9328H386.719L386.775 89.5817C386.859 95.0705 386.887 95.2534 387.422 95.2534C387.956 95.2534 387.984 95.0705 388.069 89.5817L388.125 83.9328H390.262C392.372 83.9328 392.372 83.9328 392.288 83.361L392.203 82.7664L387.45 82.7207C383.878 82.6978 382.669 82.7436 382.584 82.9494Z" fill="white"/>
<path d="M325.969 90.6795C325.969 90.9539 326.363 91.0225 327.938 91.0225C329.512 91.0225 329.906 90.9539 329.906 90.6795C329.906 90.405 329.512 90.3364 327.938 90.3364C326.363 90.3364 325.969 90.405 325.969 90.6795Z" fill="white"/>
</svg>
